<svg width="120" height="120" viewBox="0 0 120 120" fill="none" xmlns="http://www.w3.org/2000/svg">
<rect width="120" height="120" rx="60" fill="white" style="fill:white;fill-opacity:1;"/>
<path d="M103.575 49.2872V33.582C103.575 33.582 83.3775 33.582 74.0083 33.582C70.1933 33.582 66.8272 37.6766 66.8272 41.0981C66.8272 44.4079 66.8272 48.7824 66.8272 48.7824C66.8272 48.7824 58.4962 33.5821 49.4914 33.582C46.7984 33.582 41.6369 33.582 41.6369 33.582V48.7824C41.6369 48.7824 32.7927 33.582 23.5718 33.582C20.7106 33.5821 16.3906 33.582 16.3906 33.582V49.3433H41.6369V87.1479H57.4019C57.4019 87.1479 57.4019 79.1831 57.4019 73.7985C57.4019 63.1729 42.2541 49.3433 42.2541 49.3433H66.8272V87.1479H82.5921C82.5921 87.1479 82.5921 79.3514 82.5921 73.7985C82.5921 62.1879 67.3882 49.3433 67.3882 49.3433L103.575 49.2872Z" fill="#185ADC" stroke="#185ADC" style="fill:#185ADC;fill:color(display-p3 0.0958 0.3512 0.8621);fill-opacity:1;stroke:#185ADC;stroke:color(display-p3 0.0958 0.3512 0.8621);stroke-opacity:1;"/>
</svg>
