<svg width="189" height="65" viewBox="0 0 189 65" fill="none" xmlns="http://www.w3.org/2000/svg">
<rect width="189" height="65" rx="32.5" fill="#222222" style="fill:#222222;fill:color(display-p3 0.1346 0.1346 0.1346);fill-opacity:1;"/>
<path d="M43.0747 34.3291L30.1211 47.4684C30.1223 47.4706 30.1223 47.4741 30.1235 47.4765C30.5214 48.9032 31.884 49.9532 33.5022 49.9532C34.1494 49.9532 34.7565 49.7857 35.2772 49.4927L35.3186 49.4695L49.8989 41.4289L43.0747 34.3291Z" fill="#EA4335" style="fill:#EA4335;fill:color(display-p3 0.9176 0.2627 0.2078);fill-opacity:1;"/>
<path d="M56.1782 32.092L56.166 32.0838L49.8711 28.5967L42.7793 34.6279L49.8967 41.4278L56.1575 37.9756C57.2549 37.4081 58.0007 36.3023 58.0007 35.0279C58.0007 33.7605 57.2659 32.6606 56.1782 32.092Z" fill="#FBBC04" style="fill:#FBBC04;fill:color(display-p3 0.9843 0.7373 0.0157);fill-opacity:1;"/>
<path d="M30.1193 22.5303C30.0414 22.8047 30 23.093 30 23.3907V46.6088C30 46.9065 30.0414 47.1949 30.1205 47.4681L43.5181 34.6649L30.1193 22.5303Z" fill="#4285F4" style="fill:#4285F4;fill:color(display-p3 0.2588 0.5216 0.9569);fill-opacity:1;"/>
<path d="M43.1689 35.0001L49.8726 28.5944L35.3093 20.5248C34.7801 20.2213 34.162 20.0469 33.5014 20.0469C31.8833 20.0469 30.5182 21.0992 30.1203 22.5271C30.1203 22.5282 30.1191 22.5294 30.1191 22.5306L43.1689 35.0001Z" fill="#34A853" style="fill:#34A853;fill:color(display-p3 0.2039 0.6588 0.3255);fill-opacity:1;"/>
<path d="M69.6539 22.5155C69.6539 23.7615 69.2584 24.7543 68.4674 25.4937C67.5784 26.3742 66.4094 26.8145 64.9609 26.8145C63.5739 26.8145 62.4009 26.3659 61.4407 25.4687C60.4807 24.5715 60.0007 23.4666 60.0007 22.1541C60.0007 20.8415 60.4807 19.7366 61.4407 18.8394C62.4009 17.9423 63.5739 17.4937 64.9609 17.4937C65.6629 17.4937 66.3254 17.61 66.9474 17.8426C67.5694 18.0751 68.0809 18.4033 68.4809 18.827L67.6009 19.6494C67.3074 19.3171 66.9254 19.0596 66.4539 18.8768C65.9919 18.6858 65.4939 18.5902 64.9609 18.5902C63.9209 18.5902 63.0409 18.9267 62.3209 19.5996C61.6094 20.2808 61.254 21.1323 61.254 22.1541C61.254 23.1759 61.6094 24.0274 62.3209 24.7086C63.0409 25.3815 63.9209 25.718 64.9609 25.718C65.9119 25.718 66.7029 25.4687 67.3339 24.9703C67.9654 24.4718 68.3294 23.7865 68.4274 22.9142H64.9609V21.8426H69.5874C69.6319 22.0751 69.6539 22.2994 69.6539 22.5155ZM76.7179 17.693V18.7896H72.3714V21.6183H76.2914V22.6899H72.3714V25.5186H76.7179V26.6151H71.1444V17.693H76.7179ZM81.6244 18.7896V26.6151H80.3979V18.7896H77.7309V17.693H84.2909V18.7896H81.6244ZM89.7279 26.6151H88.5014V17.693H89.7279V26.6151ZM94.9054 18.7896V26.6151H93.6789V18.7896H91.0124V17.693H97.5724V18.7896H94.9054ZM110.869 22.1541C110.869 23.475 110.397 24.5798 109.455 25.4687C108.504 26.3659 107.34 26.8145 105.962 26.8145C104.575 26.8145 103.411 26.3659 102.469 25.4687C101.526 24.5798 101.055 23.475 101.055 22.1541C101.055 20.8332 101.526 19.7283 102.469 18.8394C103.411 17.9423 104.575 17.4937 105.962 17.4937C107.349 17.4937 108.513 17.9464 109.455 18.8519C110.397 19.7408 110.869 20.8415 110.869 22.1541ZM102.309 22.1541C102.309 23.1842 102.655 24.0357 103.349 24.7086C104.051 25.3815 104.922 25.718 105.962 25.718C107.002 25.718 107.869 25.3815 108.562 24.7086C109.264 24.044 109.615 23.1925 109.615 22.1541C109.615 21.1157 109.264 20.2642 108.562 19.5996C107.869 18.9267 107.002 18.5902 105.962 18.5902C104.922 18.5902 104.051 18.9267 103.349 19.5996C102.655 20.2725 102.309 21.124 102.309 22.1541ZM113.543 26.6151H112.316V17.693H113.81L118.45 24.6338H118.503L118.45 22.9142V17.693H119.676V26.6151H118.396L113.543 19.3379H113.49L113.543 21.0575V26.6151Z" fill="white" style="fill:white;fill-opacity:1;"/>
<path d="M136.692 48.0321H138.863V34.3106H136.692V48.0321ZM156.252 39.2532L153.763 45.2024H153.688L151.105 39.2532H148.765L152.64 47.5678L150.432 52.1932H152.696L158.667 39.2532H156.252ZM143.937 46.4735C143.224 46.4735 142.233 46.1387 142.233 45.3078C142.233 44.2496 143.468 43.8435 144.535 43.8435C145.489 43.8435 145.94 44.0378 146.519 44.3024C146.35 45.5734 145.19 46.4735 143.937 46.4735ZM144.198 38.9536C142.626 38.9536 140.997 39.6067 140.324 41.0545L142.251 41.8129C142.663 41.0545 143.43 40.8064 144.236 40.8064C145.359 40.8064 146.501 41.4419 146.519 42.5724V42.713C146.126 42.5011 145.284 42.1839 144.254 42.1839C142.177 42.1839 140.061 43.2607 140.061 45.2726C140.061 47.109 141.765 48.2922 143.674 48.2922C145.134 48.2922 145.94 47.6743 146.445 46.9498H146.519V48.009H148.615V42.7481C148.615 40.3124 146.688 38.9536 144.198 38.9536ZM130.777 40.9238H127.688V36.2205H130.777C132.4 36.2205 133.322 37.4882 133.322 38.5716C133.322 39.6352 132.4 40.9238 130.777 40.9238ZM130.721 34.3106H125.517V48.0321H127.688V42.8337H130.721C133.128 42.8337 135.494 41.1895 135.494 38.5716C135.494 35.9538 133.128 34.3106 130.721 34.3106ZM102.345 46.4757C100.845 46.4757 99.5892 45.2913 99.5892 43.6646C99.5892 42.0203 100.845 40.8174 102.345 40.8174C103.827 40.8174 104.988 42.0203 104.988 43.6646C104.988 45.2913 103.827 46.4757 102.345 46.4757ZM104.839 40.0216H104.764C104.276 39.4738 103.339 38.9788 102.158 38.9788C99.6822 38.9788 97.4137 41.0292 97.4137 43.6646C97.4137 46.2814 99.6822 48.3153 102.158 48.3153C103.339 48.3153 104.276 47.8202 104.764 47.2538H104.839V47.9267C104.839 49.7126 103.827 50.6675 102.195 50.6675C100.864 50.6675 100.038 49.7652 99.7007 49.0046L97.8072 49.7477C98.3507 50.9858 99.7952 52.506 102.195 52.506C104.745 52.506 106.902 51.0912 106.902 47.6435V39.2609H104.839V40.0216ZM108.402 48.0321H110.577V34.3095H108.402V48.0321ZM113.782 43.5054C113.726 41.702 115.264 40.7822 116.37 40.7822C117.233 40.7822 117.964 41.1883 118.207 41.7723L113.782 43.5054ZM120.533 41.949C120.121 40.9063 118.864 38.9788 116.295 38.9788C113.745 38.9788 111.627 40.87 111.627 43.647C111.627 46.2638 113.726 48.3153 116.538 48.3153C118.808 48.3153 120.121 47.0069 120.664 46.2462L118.977 45.1848C118.414 45.963 117.645 46.4757 116.538 46.4757C115.433 46.4757 114.645 45.9982 114.138 45.0619L120.757 42.4792L120.533 41.949ZM67.8007 40.4112V42.3914H72.8252C72.6752 43.5054 72.2817 44.3188 71.6822 44.8841C70.9502 45.5745 69.8062 46.3352 67.8007 46.3352C64.7062 46.3352 62.2877 43.9829 62.2877 41.0654C62.2877 38.1468 64.7062 35.7957 67.8007 35.7957C69.4697 35.7957 70.6882 36.4147 71.5882 37.2105L73.0697 35.8132C71.8127 34.6816 70.1447 33.8145 67.8007 33.8145C63.5632 33.8145 60.0007 37.0689 60.0007 41.0654C60.0007 45.0619 63.5632 48.3153 67.8007 48.3153C70.0877 48.3153 71.8127 47.6073 73.1627 46.2814C74.5512 44.973 74.9817 43.1345 74.9817 41.6482C74.9817 41.1883 74.9447 40.7646 74.8687 40.4112H67.8007ZM80.6952 46.4757C79.1947 46.4757 77.9007 45.3088 77.9007 43.647C77.9007 41.9666 79.1947 40.8174 80.6952 40.8174C82.1942 40.8174 83.4882 41.9666 83.4882 43.647C83.4882 45.3088 82.1942 46.4757 80.6952 46.4757ZM80.6952 38.9788C77.9567 38.9788 75.7257 40.9414 75.7257 43.647C75.7257 46.3352 77.9567 48.3153 80.6952 48.3153C83.4327 48.3153 85.6637 46.3352 85.6637 43.647C85.6637 40.9414 83.4327 38.9788 80.6952 38.9788ZM91.5342 46.4757C90.0337 46.4757 88.7397 45.3088 88.7397 43.647C88.7397 41.9666 90.0337 40.8174 91.5342 40.8174C93.0342 40.8174 94.3272 41.9666 94.3272 43.647C94.3272 45.3088 93.0342 46.4757 91.5342 46.4757ZM91.5342 38.9788C88.7967 38.9788 86.5657 40.9414 86.5657 43.647C86.5657 46.3352 88.7967 48.3153 91.5342 48.3153C94.2717 48.3153 96.5027 46.3352 96.5027 43.647C96.5027 40.9414 94.2717 38.9788 91.5342 38.9788Z" fill="white" style="fill:white;fill-opacity:1;"/>
</svg>
