<svg width="189" height="65" viewBox="0 0 189 65" fill="none" xmlns="http://www.w3.org/2000/svg">
<rect width="189" height="65" rx="32.5" fill="#222222" style="fill:#222222;fill:color(display-p3 0.1346 0.1346 0.1346);fill-opacity:1;"/>
<path d="M50.8806 33.9041C50.8958 32.7578 51.2086 31.6339 51.7901 30.6369C52.3715 29.6399 53.2026 28.8022 54.206 28.2018C53.5686 27.3157 52.7276 26.5866 51.75 26.0722C50.7723 25.5578 49.6849 25.2723 48.574 25.2385C46.2045 24.9964 43.9073 26.6185 42.6997 26.6185C41.4688 26.6185 39.6097 25.2625 37.6077 25.3026C36.3128 25.3434 35.0507 25.7098 33.9446 26.3664C32.8385 27.0229 31.926 27.9471 31.2959 29.049C28.5669 33.6476 30.6025 40.4061 33.2168 44.1233C34.5247 45.9435 36.0533 47.9767 38.0535 47.9046C40.0108 47.8256 40.7418 46.6899 43.1044 46.6899C45.4451 46.6899 46.131 47.9046 48.1717 47.8587C50.272 47.8256 51.5953 46.0305 52.8573 44.193C53.7971 42.8961 54.5203 41.4626 55 39.9458C53.7798 39.4435 52.7385 38.6028 52.006 37.5284C51.2734 36.454 50.8821 35.1935 50.8806 33.9041Z" fill="white" style="fill:white;fill-opacity:1;"/>
<path d="M47.0265 22.7939C48.1717 21.456 48.7359 19.7363 48.5993 18C46.8497 18.1788 45.2337 18.9926 44.073 20.2793C43.5056 20.9078 43.0709 21.639 42.794 22.4312C42.5171 23.2233 42.4033 24.0607 42.4591 24.8957C43.3342 24.9045 44.1999 24.7199 44.9911 24.3558C45.7822 23.9917 46.4782 23.4577 47.0265 22.7939Z" fill="white" style="fill:white;fill-opacity:1;"/>
<path d="M65 18.3943H67.5873C69.8228 18.3943 70.9108 19.7304 70.9108 22.118C70.9108 24.5165 69.812 25.8691 67.5873 25.8691H65V18.3943ZM66.2472 19.484V24.7793H67.45C68.9331 24.7793 69.6306 23.9032 69.6306 22.1399C69.6306 20.3711 68.9275 19.484 67.45 19.484H66.2472ZM74.8548 19.9768C76.3708 19.9768 77.4311 20.968 77.4311 22.5999V23.3227C77.4311 25.0148 76.3708 25.9676 74.8548 25.9676C73.3168 25.9676 72.2673 25.0257 72.2673 23.3227V22.6053C72.2673 21.0118 73.3333 19.9768 74.8548 19.9768ZM74.8604 20.9954C73.9923 20.9954 73.4978 21.7128 73.4978 22.6546V23.2899C73.4978 24.2317 73.9595 24.9491 74.8604 24.9491C75.7501 24.9491 76.2062 24.2372 76.2062 23.2899V22.6546C76.2062 21.7128 75.7281 20.9954 74.8604 20.9954ZM86.3847 20.0754L84.8579 25.8691H83.6162L82.4022 21.6361H82.3693L81.1773 25.8691H79.9304L78.3372 20.0754H79.6501L80.5839 24.4507H80.6392L81.8092 20.0754H82.9572L84.16 24.4507H84.2153L85.1654 20.0754H86.3847ZM87.5936 25.8691V20.0754H88.7908V21.1104H88.8512C88.9998 20.6558 89.4226 19.9878 90.5982 19.9878C91.7682 19.9878 92.5539 20.634 92.5539 21.9646V25.8691H91.3342V22.3315C91.3342 21.4554 90.8729 21.0666 90.1862 21.0666C89.2853 21.0666 88.8128 21.7346 88.8128 22.6546V25.8691H87.5936ZM94.3993 25.8691V18H95.619V25.8691H94.3993ZM99.8158 19.9768C101.332 19.9768 102.392 20.968 102.392 22.5999V23.3227C102.392 25.0148 101.332 25.9676 99.8158 25.9676C98.2778 25.9676 97.2283 25.0257 97.2283 23.3227V22.6053C97.2283 21.0118 98.2942 19.9768 99.8158 19.9768ZM99.8214 20.9954C98.9533 20.9954 98.4587 21.7128 98.4587 22.6546V23.2899C98.4587 24.2317 98.9204 24.9491 99.8214 24.9491C100.711 24.9491 101.167 24.2372 101.167 23.2899V22.6546C101.167 21.7128 100.689 20.9954 99.8214 20.9954ZM105.55 25.9567C104.425 25.9567 103.65 25.2722 103.65 24.1879C103.65 23.1584 104.364 22.4685 105.704 22.4685H107.171V21.9318C107.171 21.2911 106.748 20.9899 106.078 20.9899C105.419 20.9899 105.122 21.2582 105.029 21.6306H103.87C103.941 20.6723 104.672 19.9878 106.116 19.9878C107.358 19.9878 108.385 20.5025 108.385 21.9537V25.8691H107.226V25.1243H107.171C106.913 25.5624 106.407 25.9567 105.55 25.9567ZM105.93 24.982C106.622 24.982 107.171 24.5274 107.171 23.9141V23.3008H105.896C105.188 23.3008 104.875 23.6458 104.875 24.1167C104.875 24.7027 105.38 24.982 105.93 24.982ZM112.142 19.9987C112.961 19.9987 113.587 20.3601 113.812 20.9461H113.873V18H115.092V25.8691H113.905V24.9436H113.845C113.67 25.5295 112.972 25.9457 112.126 25.9457C110.791 25.9457 109.923 24.9929 109.923 23.4486V22.4903C109.923 20.9461 110.807 19.9987 112.142 19.9987ZM112.483 21.0392C111.67 21.0392 111.165 21.6306 111.165 22.6601V23.2734C111.165 24.3193 111.676 24.9053 112.51 24.9053C113.334 24.9053 113.873 24.3248 113.873 23.3501V22.5068C113.873 21.6196 113.285 21.0392 112.483 21.0392ZM121.788 19.9768C123.304 19.9768 124.365 20.968 124.365 22.5999V23.3227C124.365 25.0148 123.304 25.9676 121.788 25.9676C120.25 25.9676 119.201 25.0257 119.201 23.3227V22.6053C119.201 21.0118 120.267 19.9768 121.788 19.9768ZM121.794 20.9954C120.926 20.9954 120.431 21.7128 120.431 22.6546V23.2899C120.431 24.2317 120.893 24.9491 121.794 24.9491C122.684 24.9491 123.14 24.2372 123.14 23.2899V22.6546C123.14 21.7128 122.662 20.9954 121.794 20.9954ZM125.935 25.8691V20.0754H127.133V21.1104H127.194C127.342 20.6558 127.765 19.9878 128.941 19.9878C130.111 19.9878 130.896 20.634 130.896 21.9646V25.8691H129.677V22.3315C129.677 21.4554 129.215 21.0666 128.529 21.0666C127.628 21.0666 127.155 21.7346 127.155 22.6546V25.8691H125.935ZM135.615 20.1192V18.6736H136.807V20.1192H138.108V21.1104H136.807V24.1167C136.807 24.73 137.043 24.9053 137.696 24.9053C137.861 24.9053 138.081 24.8943 138.174 24.8834V25.8526C138.076 25.8745 137.669 25.9074 137.394 25.9074C135.983 25.9074 135.598 25.4036 135.598 24.2372V21.1104H134.714V20.1192H135.615ZM139.646 25.8691V18H140.86V21.1104H140.921C141.047 20.6997 141.52 19.9878 142.684 19.9878C143.816 19.9878 144.624 20.6449 144.624 21.9701V25.8691H143.409V22.337C143.409 21.4663 142.921 21.0666 142.228 21.0666C141.355 21.0666 140.86 21.7292 140.86 22.6546V25.8691H139.646ZM148.716 25.9676C147.134 25.9676 146.15 25.0038 146.15 23.3501V22.5944C146.15 20.9297 147.227 19.9768 148.644 19.9768C150.1 19.9768 151.127 20.9844 151.127 22.5944V23.2679H147.359V23.5527C147.359 24.3631 147.853 24.96 148.71 24.96C149.348 24.96 149.787 24.6589 149.869 24.2974H151.061C150.99 24.982 150.281 25.9676 148.716 25.9676ZM147.359 22.452H149.935V22.3808C149.935 21.532 149.424 20.968 148.65 20.968C147.875 20.968 147.359 21.532 147.359 22.3808V22.452Z" fill="white" style="fill:white;fill-opacity:1;"/>
<path d="M67.5379 46.246H65L70.1634 31.2963H72.9543L78.1068 46.246H75.4701L74.1407 42.106H68.8781L67.5379 46.246ZM71.5696 33.881H71.4707L69.4387 40.2004H73.5801L71.5696 33.881ZM85.1109 46.4102C83.6057 46.4102 82.4629 45.6983 81.8479 44.636H81.7598V50.0902H79.3209V34.6696H81.6942V36.3672H81.7818C82.4188 35.261 83.6057 34.5162 85.1657 34.5162C87.7696 34.5162 89.6259 36.4767 89.6259 39.9375V40.967C89.6259 44.406 87.7912 46.4102 85.1109 46.4102ZM84.5502 44.406C86.0995 44.406 87.1542 43.1684 87.1542 40.8356V40.0252C87.1542 37.78 86.1656 36.4986 84.5067 36.4986C82.8037 36.4986 81.7377 37.8785 81.7377 40.0142V40.8356C81.7377 43.026 82.8145 44.406 84.5502 44.406ZM97.5088 46.4102C96.0042 46.4102 94.8613 45.6983 94.2463 44.636H94.1582V50.0902H91.7193V34.6696H94.0921V36.3672H94.1802C94.8173 35.261 96.0042 34.5162 97.5642 34.5162C100.168 34.5162 102.024 36.4767 102.024 39.9375V40.967C102.024 44.406 100.19 46.4102 97.5088 46.4102ZM96.9487 44.406C98.4979 44.406 99.5526 43.1684 99.5526 40.8356V40.0252C99.5526 37.78 98.5635 36.4986 96.9046 36.4986C95.2021 36.4986 94.1362 37.8785 94.1362 40.0142V40.8356C94.1362 43.026 95.2129 44.406 96.9487 44.406ZM107.079 42.0951H109.518C109.627 43.3874 110.77 44.4936 112.89 44.4936C114.835 44.4936 115.988 43.5846 115.988 42.1717C115.988 41.0327 115.22 40.4194 113.616 40.0361L111.155 39.4228C109.221 38.9738 107.485 37.8238 107.485 35.3924C107.485 32.5339 109.99 30.9678 112.902 30.9678C115.813 30.9678 118.241 32.5339 118.296 35.3267H115.901C115.791 34.0563 114.813 33.0049 112.868 33.0049C111.155 33.0049 109.99 33.8153 109.99 35.2062C109.99 36.181 110.671 36.8819 112.066 37.1995L114.516 37.8019C116.769 38.3495 118.483 39.4118 118.483 41.9527C118.483 44.8879 116.099 46.5417 112.704 46.5417C108.529 46.5417 107.134 44.1103 107.079 42.0951ZM121.454 34.6696V31.8549H123.85V34.6696H126.113V36.619H123.85V42.796C123.85 44.0555 124.322 44.406 125.629 44.406C125.838 44.406 126.036 44.406 126.179 44.3841V46.246C125.981 46.2788 125.519 46.3226 125.025 46.3226C122.202 46.3226 121.422 45.315 121.422 42.9932V36.619H119.818V34.6696H121.454ZM132.699 34.4724C136.039 34.4724 137.852 36.8162 137.852 39.9704V40.9013C137.852 44.1651 136.05 46.4431 132.699 46.4431C129.349 46.4431 127.525 44.1651 127.525 40.9013V39.9704C127.525 36.8271 129.359 34.4724 132.699 34.4724ZM132.699 36.4219C130.887 36.4219 129.986 37.9004 129.986 40.0032V40.8904C129.986 42.9603 130.875 44.4827 132.699 44.4827C134.523 44.4827 135.402 42.9713 135.402 40.8904V40.0032C135.402 37.8895 134.512 36.4219 132.699 36.4219ZM139.912 46.246V34.6696H142.351V36.1919H142.439C142.736 35.4691 143.603 34.5053 145.219 34.5053C145.537 34.5053 145.812 34.5272 146.042 34.571V36.7176C145.834 36.6629 145.405 36.63 144.999 36.63C143.043 36.63 142.384 37.8347 142.384 39.3899V46.246H139.912ZM151.959 46.4431C148.85 46.4431 146.872 44.3951 146.872 40.967V39.7952C146.872 36.5643 148.806 34.4724 151.86 34.4724C154.958 34.4724 156.826 36.641 156.826 39.9047V41.0109H149.278V41.2846C149.278 43.2341 150.333 44.5265 151.992 44.5265C153.233 44.5265 154.079 43.9132 154.376 42.9165H156.694C156.343 44.7893 154.826 46.4431 151.959 46.4431ZM149.278 39.3133H154.442V39.2914C154.442 37.6486 153.42 36.3562 151.871 36.3562C150.3 36.3562 149.278 37.6486 149.278 39.2914V39.3133Z" fill="white" style="fill:white;fill-opacity:1;"/>
</svg>
