<svg width="300" height="299" viewBox="0 0 300 299" fill="none" xmlns="http://www.w3.org/2000/svg">
<g clip-path="url(#clip0_2201_6668)">
<path d="M3.64816 79.9917C5.66459 79.9917 7.29629 78.3654 7.29629 76.356V61.8119C7.29629 59.8021 5.66459 58.1758 3.64816 58.1758C1.63172 58.1758 0 59.8021 0 61.8119V76.356C0 78.3654 1.63172 79.9917 3.64816 79.9917Z" fill="#2C2D2E" style="fill:#2C2D2E;fill:color(display-p3 0.1725 0.1765 0.1804);fill-opacity:1;"/>
<path d="M3.64816 94.5355H7.29629V105.444C7.29629 107.453 8.928 109.08 10.9445 109.08H18.2408C20.2572 109.08 21.8889 107.453 21.8889 105.444C21.8889 103.434 20.2572 101.807 18.2408 101.807H14.5926V90.8994C14.5926 88.89 12.9609 87.2637 10.9445 87.2637H3.64816C1.63172 87.2637 0 88.89 0 90.8994C0 92.9092 1.63172 94.5355 3.64816 94.5355Z" fill="#2C2D2E" style="fill:#2C2D2E;fill:color(display-p3 0.1725 0.1765 0.1804);fill-opacity:1;"/>
<path d="M3.64816 159.984C5.66459 159.984 7.29629 158.357 7.29629 156.348V145.44H21.8889V149.076C21.8889 151.085 23.5206 152.711 25.537 152.711C27.5535 152.711 29.1852 151.085 29.1852 149.076V141.803C29.1852 139.794 27.5535 138.168 25.537 138.168H21.8889V134.532C21.8889 132.522 20.2572 130.896 18.2407 130.896H3.64816C1.63172 130.896 0 132.522 0 134.532V156.348C0 158.357 1.63172 159.984 3.64816 159.984Z" fill="#2C2D2E" style="fill:#2C2D2E;fill:color(display-p3 0.1725 0.1765 0.1804);fill-opacity:1;"/>
<path d="M3.64816 210.887H7.29629V214.524C7.29629 216.533 8.928 218.159 10.9445 218.159H25.537C27.5535 218.159 29.1852 216.533 29.1852 214.524C29.1852 212.514 27.5535 210.887 25.537 210.887H21.8889V207.251C21.8889 205.242 20.2572 203.616 18.2407 203.616H14.5926V189.071H21.8889V199.979C21.8889 201.989 23.5206 203.616 25.537 203.616H29.1852V207.251C29.1852 209.261 30.8169 210.887 32.8334 210.887C34.8499 210.887 36.4816 209.261 36.4816 207.251V203.616H40.1296C42.1461 203.616 43.7778 201.989 43.7778 199.979C43.7778 197.97 42.1461 196.343 40.1296 196.343H36.4816V189.071H40.1296C42.1461 189.071 43.7778 187.445 43.7778 185.435V181.8H47.4261C49.4423 181.8 51.074 180.173 51.074 178.163C51.074 176.154 49.4423 174.527 47.4261 174.527H40.1296C38.113 174.527 36.4816 176.154 36.4816 178.163V181.8H29.1852V174.527H32.8334C34.8499 174.527 36.4816 172.901 36.4816 170.892C36.4816 168.882 34.8499 167.256 32.8334 167.256H21.8889V156.348C21.8889 154.338 20.2572 152.711 18.2407 152.711C16.2243 152.711 14.5926 154.338 14.5926 156.348V159.984H10.9445C8.928 159.984 7.29629 161.61 7.29629 163.619V181.8H3.64816C1.63172 181.8 0 183.426 0 185.435C0 187.445 1.63172 189.071 3.64816 189.071H7.29629V196.343H3.64816C1.63172 196.343 0 197.97 0 199.979V207.251C0 209.261 1.63172 210.887 3.64816 210.887ZM14.5926 174.527H21.8889V181.8H14.5926V174.527Z" fill="#2C2D2E" style="fill:#2C2D2E;fill:color(display-p3 0.1725 0.1765 0.1804);fill-opacity:1;"/>
<path d="M3.64816 239.975C5.66459 239.975 7.29629 238.349 7.29629 236.339V229.067C7.29629 227.057 5.66459 225.431 3.64816 225.431C1.63172 225.431 0 227.057 0 229.067V236.339C0 238.349 1.63172 239.975 3.64816 239.975Z" fill="#2C2D2E" style="fill:#2C2D2E;fill:color(display-p3 0.1725 0.1765 0.1804);fill-opacity:1;"/>
<path d="M10.9443 123.623C12.9591 123.623 14.5924 121.996 14.5924 119.987C14.5924 117.979 12.9591 116.352 10.9443 116.352C8.92948 116.352 7.29614 117.979 7.29614 119.987C7.29614 121.996 8.92948 123.623 10.9443 123.623Z" fill="#2C2D2E" style="fill:#2C2D2E;fill:color(display-p3 0.1725 0.1765 0.1804);fill-opacity:1;"/>
<path d="M18.2409 87.2636C20.2557 87.2636 21.8891 85.6357 21.8891 83.6275C21.8891 81.6193 20.2557 79.9917 18.2409 79.9917C16.2261 79.9917 14.5928 81.6193 14.5928 83.6275C14.5928 85.6357 16.2261 87.2636 18.2409 87.2636Z" fill="#2C2D2E" style="fill:#2C2D2E;fill:color(display-p3 0.1725 0.1765 0.1804);fill-opacity:1;"/>
<path d="M18.2409 239.975C20.2557 239.975 21.8891 238.347 21.8891 236.339C21.8891 234.331 20.2557 232.703 18.2409 232.703C16.2261 232.703 14.5928 234.331 14.5928 236.339C14.5928 238.347 16.2261 239.975 18.2409 239.975Z" fill="#2C2D2E" style="fill:#2C2D2E;fill:color(display-p3 0.1725 0.1765 0.1804);fill-opacity:1;"/>
<path d="M25.5372 58.1758H18.2409C16.2245 58.1758 14.5928 59.8021 14.5928 61.8119C14.5928 63.8217 16.2245 65.448 18.2409 65.448H21.8891V76.356C21.8891 78.3654 23.5208 79.9917 25.5372 79.9917C27.5537 79.9917 29.1854 78.3654 29.1854 76.356V61.8119C29.1854 59.8021 27.5537 58.1758 25.5372 58.1758Z" fill="#2C2D2E" style="fill:#2C2D2E;fill:color(display-p3 0.1725 0.1765 0.1804);fill-opacity:1;"/>
<path d="M25.537 94.5355C27.5519 94.5355 29.1852 92.9076 29.1852 90.8994C29.1852 88.8916 27.5519 87.2637 25.537 87.2637C23.5222 87.2637 21.8889 88.8916 21.8889 90.8994C21.8889 92.9076 23.5222 94.5355 25.537 94.5355Z" fill="#2C2D2E" style="fill:#2C2D2E;fill:color(display-p3 0.1725 0.1765 0.1804);fill-opacity:1;"/>
<path d="M25.537 123.623C27.5519 123.623 29.1852 121.996 29.1852 119.987C29.1852 117.979 27.5519 116.352 25.537 116.352C23.5222 116.352 21.8889 117.979 21.8889 119.987C21.8889 121.996 23.5222 123.623 25.537 123.623Z" fill="#2C2D2E" style="fill:#2C2D2E;fill:color(display-p3 0.1725 0.1765 0.1804);fill-opacity:1;"/>
<path d="M25.537 232.703C27.5519 232.703 29.1852 231.075 29.1852 229.067C29.1852 227.059 27.5519 225.431 25.537 225.431C23.5222 225.431 21.8889 227.059 21.8889 229.067C21.8889 231.075 23.5222 232.703 25.537 232.703Z" fill="#2C2D2E" style="fill:#2C2D2E;fill:color(display-p3 0.1725 0.1765 0.1804);fill-opacity:1;"/>
<path d="M32.8333 109.08H47.4261C49.4423 109.08 51.074 107.454 51.074 105.444C51.074 103.434 49.4423 101.808 47.4261 101.808H32.8333C30.8169 101.808 29.1852 103.434 29.1852 105.444C29.1852 107.454 30.8169 109.08 32.8333 109.08Z" fill="#2C2D2E" style="fill:#2C2D2E;fill:color(display-p3 0.1725 0.1765 0.1804);fill-opacity:1;"/>
<path d="M32.8333 159.983H40.1295C42.1461 159.983 43.7778 158.357 43.7778 156.347V152.711H47.4261C49.4423 152.711 51.074 151.085 51.074 149.075C51.074 147.066 49.4423 145.439 47.4261 145.439H43.7778V138.168H51.074V141.803C51.074 143.813 52.7057 145.439 54.7223 145.439H58.3705V149.075C58.3705 151.085 60.0023 152.711 62.0184 152.711H69.315C71.3312 152.711 72.9629 151.085 72.9629 149.075C72.9629 147.066 71.3312 145.439 69.315 145.439H65.6667V134.531C65.6667 132.522 64.035 130.895 62.0184 130.895H58.3705V119.987C58.3705 117.978 56.7388 116.352 54.7223 116.352H47.4261C45.4095 116.352 43.7778 117.978 43.7778 119.987C43.7778 121.997 45.4095 123.623 47.4261 123.623H51.074V130.895H40.1295C38.1133 130.895 36.4816 132.522 36.4816 134.531V152.711H32.8333C30.8169 152.711 29.1852 154.338 29.1852 156.347C29.1852 158.357 30.8169 159.983 32.8333 159.983Z" fill="#2C2D2E" style="fill:#2C2D2E;fill:color(display-p3 0.1725 0.1765 0.1804);fill-opacity:1;"/>
<path d="M32.8333 239.975C34.8482 239.975 36.4816 238.347 36.4816 236.339C36.4816 234.331 34.8482 232.703 32.8333 232.703C30.8185 232.703 29.1852 234.331 29.1852 236.339C29.1852 238.347 30.8185 239.975 32.8333 239.975Z" fill="#2C2D2E" style="fill:#2C2D2E;fill:color(display-p3 0.1725 0.1765 0.1804);fill-opacity:1;"/>
<path d="M40.1296 218.159C42.1445 218.159 43.7779 216.531 43.7779 214.523C43.7779 212.515 42.1445 210.887 40.1296 210.887C38.1151 210.887 36.4817 212.515 36.4817 214.523C36.4817 216.531 38.1151 218.159 40.1296 218.159Z" fill="#2C2D2E" style="fill:#2C2D2E;fill:color(display-p3 0.1725 0.1765 0.1804);fill-opacity:1;"/>
<path d="M40.1296 232.703C42.1445 232.703 43.7779 231.075 43.7779 229.067C43.7779 227.059 42.1445 225.431 40.1296 225.431C38.1151 225.431 36.4817 227.059 36.4817 229.067C36.4817 231.075 38.1151 232.703 40.1296 232.703Z" fill="#2C2D2E" style="fill:#2C2D2E;fill:color(display-p3 0.1725 0.1765 0.1804);fill-opacity:1;"/>
<path d="M43.7779 58.1757H40.1296C38.1134 58.1757 36.4817 59.8019 36.4817 61.8117V69.0836C36.4817 71.0934 38.1134 72.7197 40.1296 72.7197C42.1461 72.7197 43.7779 71.0934 43.7779 69.0836V65.4479H58.3706V76.3558C58.3706 78.3653 60.0023 79.9916 62.0185 79.9916H65.6668V87.2638H40.1296C38.1134 87.2638 36.4817 88.8901 36.4817 90.8996C36.4817 92.9094 38.1134 94.5357 40.1296 94.5357H51.0741V98.1718C51.0741 100.181 52.7058 101.808 54.7223 101.808H58.3706V105.444C58.3706 107.453 60.0023 109.08 62.0185 109.08H72.963V112.716C72.963 114.725 74.5947 116.352 76.6113 116.352H80.2595V123.623H72.963V119.988C72.963 117.978 71.3313 116.352 69.3151 116.352C67.2985 116.352 65.6668 117.978 65.6668 119.988V127.26C65.6668 129.269 67.2985 130.896 69.3151 130.896H80.2595V138.168H76.6113C74.5947 138.168 72.963 139.794 72.963 141.804C72.963 143.813 74.5947 145.439 76.6113 145.439H80.2595V152.712H76.6113C74.5947 152.712 72.963 154.338 72.963 156.347C72.963 158.357 74.5947 159.984 76.6113 159.984H83.9074C85.924 159.984 87.5557 158.357 87.5557 156.347V152.712H94.8519V156.347C94.8519 158.357 96.4836 159.984 98.5002 159.984H102.148V163.619C102.148 165.629 103.78 167.255 105.796 167.255C107.813 167.255 109.445 165.629 109.445 163.619V159.984H113.093C115.109 159.984 116.741 158.357 116.741 156.347C116.741 154.338 115.109 152.712 113.093 152.712H102.148V149.076C102.148 147.066 100.517 145.439 98.5002 145.439H94.8519V141.804C94.8519 139.794 93.2202 138.168 91.204 138.168H87.5557V112.716C87.5557 110.706 85.924 109.08 83.9074 109.08H80.2595V90.8996C80.2595 88.8901 78.6278 87.2638 76.6113 87.2638H72.963V79.9916H80.2595V83.6277C80.2595 85.6375 81.8913 87.2638 83.9074 87.2638H94.8519V94.5357H91.204C89.1875 94.5357 87.5557 96.162 87.5557 98.1718C87.5557 100.181 89.1875 101.808 91.204 101.808H94.8519V105.444C94.8519 107.453 96.4836 109.08 98.5002 109.08H105.796C107.813 109.08 109.445 107.453 109.445 105.444C109.445 103.434 107.813 101.808 105.796 101.808H102.148V94.5357H105.796C107.813 94.5357 109.445 92.9094 109.445 90.8996C109.445 88.8901 107.813 87.2638 105.796 87.2638H102.148V83.6277C102.148 81.6179 100.517 79.9916 98.5002 79.9916H87.5557V72.7197H91.204C93.2202 72.7197 94.8519 71.0934 94.8519 69.0836C94.8519 67.0742 93.2202 65.4479 91.204 65.4479H80.2595V43.6319H87.5557V54.5399C87.5557 56.5497 89.1875 58.1757 91.204 58.1757C93.2202 58.1757 94.8519 56.5497 94.8519 54.5399V36.36H98.5002C100.517 36.36 102.148 34.7337 102.148 32.7239V29.0879H127.685C129.702 29.0879 131.334 27.4616 131.334 25.4519C131.334 23.4422 129.702 21.8159 127.685 21.8159H109.445V14.5439H113.093C115.109 14.5439 116.741 12.9177 116.741 10.908C116.741 8.89824 115.109 7.27197 113.093 7.27197H102.148V3.636C102.148 1.62628 100.517 0 98.5002 0H83.9074C81.8913 0 80.2595 1.62628 80.2595 3.636V14.5439H72.963V3.636C72.963 1.62628 71.3313 0 69.3151 0C67.2985 0 65.6668 1.62628 65.6668 3.636V7.27197H62.0185C60.0023 7.27197 58.3706 8.89824 58.3706 10.908C58.3706 12.9177 60.0023 14.5439 62.0185 14.5439H65.6668V21.8159H62.0185C60.0023 21.8159 58.3706 23.4422 58.3706 25.4519C58.3706 27.4616 60.0023 29.0879 62.0185 29.0879H65.6668V36.36H62.0185C60.0023 36.36 58.3706 37.986 58.3706 39.9958V58.1757H43.7779ZM72.963 101.808H65.6668V94.5357H72.963V101.808ZM72.963 72.7197H65.6668V65.4479H72.963V72.7197ZM94.8519 14.5439V21.8159H87.5557V14.5439H94.8519ZM72.963 29.0879V21.8159H80.2595V25.4519C80.2595 27.4616 81.8913 29.0879 83.9074 29.0879H87.5557V36.36H72.963V29.0879ZM65.6668 43.6319H72.963V50.9038H65.6668V43.6319Z" fill="#2C2D2E" style="fill:#2C2D2E;fill:color(display-p3 0.1725 0.1765 0.1804);fill-opacity:1;"/>
<path d="M47.4258 79.9916C49.4407 79.9916 51.074 78.3637 51.074 76.3558C51.074 74.3477 49.4407 72.7197 47.4258 72.7197C45.4112 72.7197 43.7778 74.3477 43.7778 76.3558C43.7778 78.3637 45.4112 79.9916 47.4258 79.9916Z" fill="#2C2D2E" style="fill:#2C2D2E;fill:color(display-p3 0.1725 0.1765 0.1804);fill-opacity:1;"/>
<path d="M47.4258 167.255C49.4407 167.255 51.074 165.627 51.074 163.619C51.074 161.611 49.4407 159.983 47.4258 159.983C45.4112 159.983 43.7778 161.611 43.7778 163.619C43.7778 165.627 45.4112 167.255 47.4258 167.255Z" fill="#2C2D2E" style="fill:#2C2D2E;fill:color(display-p3 0.1725 0.1765 0.1804);fill-opacity:1;"/>
<path d="M47.4258 210.887C49.4407 210.887 51.074 209.259 51.074 207.251C51.074 205.243 49.4407 203.615 47.4258 203.615C45.4112 203.615 43.7778 205.243 43.7778 207.251C43.7778 209.259 45.4112 210.887 47.4258 210.887Z" fill="#2C2D2E" style="fill:#2C2D2E;fill:color(display-p3 0.1725 0.1765 0.1804);fill-opacity:1;"/>
<path d="M47.4258 225.431C49.4407 225.431 51.074 223.803 51.074 221.795C51.074 219.787 49.4407 218.159 47.4258 218.159C45.4112 218.159 43.7778 219.787 43.7778 221.795C43.7778 223.803 45.4112 225.431 47.4258 225.431Z" fill="#2C2D2E" style="fill:#2C2D2E;fill:color(display-p3 0.1725 0.1765 0.1804);fill-opacity:1;"/>
<path d="M47.4258 239.975C49.4407 239.975 51.074 238.347 51.074 236.339C51.074 234.331 49.4407 232.703 47.4258 232.703C45.4112 232.703 43.7778 234.331 43.7778 236.339C43.7778 238.347 45.4112 239.975 47.4258 239.975Z" fill="#2C2D2E" style="fill:#2C2D2E;fill:color(display-p3 0.1725 0.1765 0.1804);fill-opacity:1;"/>
<path d="M54.7222 159.984C56.7371 159.984 58.3705 158.356 58.3705 156.348C58.3705 154.339 56.7371 152.711 54.7222 152.711C52.7073 152.711 51.074 154.339 51.074 156.348C51.074 158.356 52.7073 159.984 54.7222 159.984Z" fill="#2C2D2E" style="fill:#2C2D2E;fill:color(display-p3 0.1725 0.1765 0.1804);fill-opacity:1;"/>
<path d="M54.7222 174.527C56.7371 174.527 58.3705 172.899 58.3705 170.891C58.3705 168.883 56.7371 167.255 54.7222 167.255C52.7073 167.255 51.074 168.883 51.074 170.891C51.074 172.899 52.7073 174.527 54.7222 174.527Z" fill="#2C2D2E" style="fill:#2C2D2E;fill:color(display-p3 0.1725 0.1765 0.1804);fill-opacity:1;"/>
<path d="M54.7222 218.159C56.7371 218.159 58.3705 216.531 58.3705 214.523C58.3705 212.515 56.7371 210.887 54.7222 210.887C52.7073 210.887 51.074 212.515 51.074 214.523C51.074 216.531 52.7073 218.159 54.7222 218.159Z" fill="#2C2D2E" style="fill:#2C2D2E;fill:color(display-p3 0.1725 0.1765 0.1804);fill-opacity:1;"/>
<path d="M62.0185 210.887H69.3151C71.3313 210.887 72.963 209.261 72.963 207.251C72.963 205.242 71.3313 203.615 69.3151 203.615H62.0185C60.0023 203.615 58.3706 205.242 58.3706 207.251C58.3706 209.261 60.0023 210.887 62.0185 210.887Z" fill="#2C2D2E" style="fill:#2C2D2E;fill:color(display-p3 0.1725 0.1765 0.1804);fill-opacity:1;"/>
<path d="M69.3151 239.975C71.3313 239.975 72.963 238.349 72.963 236.339C72.963 234.329 71.3313 232.703 69.3151 232.703H62.0185C60.0023 232.703 58.3706 234.329 58.3706 236.339V258.155C58.3706 260.165 60.0023 261.791 62.0185 261.791C64.0351 261.791 65.6668 260.165 65.6668 258.155V254.519H69.3151C71.3313 254.519 72.963 252.893 72.963 250.883C72.963 248.873 71.3313 247.247 69.3151 247.247H65.6668V239.975H69.3151Z" fill="#2C2D2E" style="fill:#2C2D2E;fill:color(display-p3 0.1725 0.1765 0.1804);fill-opacity:1;"/>
<path d="M69.3151 290.879H62.0185C60.0023 290.879 58.3706 292.505 58.3706 294.515C58.3706 296.525 60.0023 298.151 62.0185 298.151H69.3151C71.3313 298.151 72.963 296.525 72.963 294.515C72.963 292.505 71.3313 290.879 69.3151 290.879Z" fill="#2C2D2E" style="fill:#2C2D2E;fill:color(display-p3 0.1725 0.1765 0.1804);fill-opacity:1;"/>
<path d="M76.6112 218.159C78.6257 218.159 80.2591 216.531 80.2591 214.523C80.2591 212.515 78.6257 210.887 76.6112 210.887C74.5963 210.887 72.9629 212.515 72.9629 214.523C72.9629 216.531 74.5963 218.159 76.6112 218.159Z" fill="#2C2D2E" style="fill:#2C2D2E;fill:color(display-p3 0.1725 0.1765 0.1804);fill-opacity:1;"/>
<path d="M76.6112 232.703C78.6257 232.703 80.2591 231.075 80.2591 229.067C80.2591 227.059 78.6257 225.431 76.6112 225.431C74.5963 225.431 72.9629 227.059 72.9629 229.067C72.9629 231.075 74.5963 232.703 76.6112 232.703Z" fill="#2C2D2E" style="fill:#2C2D2E;fill:color(display-p3 0.1725 0.1765 0.1804);fill-opacity:1;"/>
<path d="M76.6112 247.247C78.6257 247.247 80.2591 245.619 80.2591 243.611C80.2591 241.603 78.6257 239.975 76.6112 239.975C74.5963 239.975 72.9629 241.603 72.9629 243.611C72.9629 245.619 74.5963 247.247 76.6112 247.247Z" fill="#2C2D2E" style="fill:#2C2D2E;fill:color(display-p3 0.1725 0.1765 0.1804);fill-opacity:1;"/>
<path d="M94.8519 254.519V250.883C94.8519 248.873 93.2201 247.247 91.2039 247.247C89.1874 247.247 87.5557 248.873 87.5557 250.883V258.155C87.5557 260.165 89.1874 261.791 91.2039 261.791C93.2201 261.791 94.8519 260.165 94.8519 258.155V254.519Z" fill="#2C2D2E" style="fill:#2C2D2E;fill:color(display-p3 0.1725 0.1765 0.1804);fill-opacity:1;"/>
<path d="M91.2039 276.335C93.2185 276.335 94.8519 274.707 94.8519 272.699C94.8519 270.691 93.2185 269.063 91.2039 269.063C89.189 269.063 87.5557 270.691 87.5557 272.699C87.5557 274.707 89.189 276.335 91.2039 276.335Z" fill="#2C2D2E" style="fill:#2C2D2E;fill:color(display-p3 0.1725 0.1765 0.1804);fill-opacity:1;"/>
<path d="M91.204 290.879H87.5557V279.971C87.5557 277.961 85.924 276.335 83.9075 276.335H80.2595V272.699C80.2595 270.689 78.6278 269.063 76.6113 269.063H62.0185C60.0023 269.063 58.3706 270.689 58.3706 272.699V279.971C58.3706 281.981 60.0023 283.607 62.0185 283.607H80.2595V294.515C80.2595 296.525 81.8913 298.151 83.9075 298.151H91.204C93.2202 298.151 94.8519 296.525 94.8519 294.515C94.8519 292.505 93.2202 290.879 91.204 290.879Z" fill="#2C2D2E" style="fill:#2C2D2E;fill:color(display-p3 0.1725 0.1765 0.1804);fill-opacity:1;"/>
<path d="M98.5001 138.168C100.515 138.168 102.148 136.54 102.148 134.532C102.148 132.523 100.515 130.896 98.5001 130.896C96.4852 130.896 94.8518 132.523 94.8518 134.532C94.8518 136.54 96.4852 138.168 98.5001 138.168Z" fill="#2C2D2E" style="fill:#2C2D2E;fill:color(display-p3 0.1725 0.1765 0.1804);fill-opacity:1;"/>
<path d="M102.148 218.159V181.799H109.445V185.435C109.445 187.445 111.076 189.071 113.093 189.071C115.109 189.071 116.741 187.445 116.741 185.435V178.163C116.741 176.154 115.109 174.527 113.093 174.527H102.148V170.891C102.148 168.882 100.516 167.255 98.5001 167.255C96.4836 167.255 94.8519 168.882 94.8519 170.891V174.527H87.5557V170.891C87.5557 168.882 85.9239 167.255 83.9074 167.255C81.8909 167.255 80.2591 168.882 80.2591 170.891V174.527H69.3147C67.2985 174.527 65.6667 176.154 65.6667 178.163V181.799H62.0185C60.002 181.799 58.3702 183.426 58.3702 185.435V189.071H47.4258C45.4096 189.071 43.7778 190.698 43.7778 192.707C43.7778 194.717 45.4096 196.343 47.4258 196.343H51.074V199.979C51.074 201.989 52.7058 203.615 54.7223 203.615C56.7385 203.615 58.3702 201.989 58.3702 199.979V196.343H62.0185C64.035 196.343 65.6667 194.717 65.6667 192.707V189.071H94.8519V210.887H91.2036C89.1874 210.887 87.5557 212.514 87.5557 214.523C87.5557 216.533 89.1874 218.159 91.2036 218.159H94.8519V221.795C94.8519 223.805 96.4836 225.431 98.5001 225.431C100.516 225.431 102.148 223.805 102.148 221.795V218.159Z" fill="#2C2D2E" style="fill:#2C2D2E;fill:color(display-p3 0.1725 0.1765 0.1804);fill-opacity:1;"/>
<path d="M98.5001 239.975C100.517 239.975 102.148 238.349 102.148 236.339C102.148 234.329 100.517 232.703 98.5001 232.703H94.8519V229.067C94.8519 227.057 93.2201 225.431 91.2039 225.431C89.1874 225.431 87.5557 227.057 87.5557 229.067V236.339C87.5557 238.349 89.1874 239.975 91.2039 239.975H98.5001Z" fill="#2C2D2E" style="fill:#2C2D2E;fill:color(display-p3 0.1725 0.1765 0.1804);fill-opacity:1;"/>
<path d="M98.5001 290.879C100.515 290.879 102.148 289.251 102.148 287.243C102.148 285.235 100.515 283.607 98.5001 283.607C96.4852 283.607 94.8518 285.235 94.8518 287.243C94.8518 289.251 96.4852 290.879 98.5001 290.879Z" fill="#2C2D2E" style="fill:#2C2D2E;fill:color(display-p3 0.1725 0.1765 0.1804);fill-opacity:1;"/>
<path d="M105.796 50.9036C107.813 50.9036 109.445 49.2773 109.445 47.2675V39.9956C109.445 37.9858 107.813 36.3599 105.796 36.3599C103.78 36.3599 102.148 37.9858 102.148 39.9956V47.2675C102.148 49.2773 103.78 50.9036 105.796 50.9036Z" fill="#2C2D2E" style="fill:#2C2D2E;fill:color(display-p3 0.1725 0.1765 0.1804);fill-opacity:1;"/>
<path d="M102.148 65.4479V69.0837C102.148 71.0935 103.78 72.7198 105.796 72.7198C107.813 72.7198 109.445 71.0935 109.445 69.0837V65.4479H113.093C115.109 65.4479 116.741 63.8216 116.741 61.8118V54.5399C116.741 52.5301 115.109 50.9038 113.093 50.9038C111.076 50.9038 109.445 52.5301 109.445 54.5399V58.176H105.796C103.78 58.176 102.148 59.802 102.148 61.8118V65.4479Z" fill="#2C2D2E" style="fill:#2C2D2E;fill:color(display-p3 0.1725 0.1765 0.1804);fill-opacity:1;"/>
<path d="M105.796 123.623C107.811 123.623 109.445 121.996 109.445 119.987C109.445 117.979 107.811 116.352 105.796 116.352C103.781 116.352 102.148 117.979 102.148 119.987C102.148 121.996 103.781 123.623 105.796 123.623Z" fill="#2C2D2E" style="fill:#2C2D2E;fill:color(display-p3 0.1725 0.1765 0.1804);fill-opacity:1;"/>
<path d="M105.796 145.439H113.093C115.109 145.439 116.741 143.813 116.741 141.804C116.741 139.794 115.109 138.167 113.093 138.167H105.796C103.78 138.167 102.148 139.794 102.148 141.804C102.148 143.813 103.78 145.439 105.796 145.439Z" fill="#2C2D2E" style="fill:#2C2D2E;fill:color(display-p3 0.1725 0.1765 0.1804);fill-opacity:1;"/>
<path d="M105.796 232.703C107.811 232.703 109.445 231.075 109.445 229.067C109.445 227.059 107.811 225.431 105.796 225.431C103.781 225.431 102.148 227.059 102.148 229.067C102.148 231.075 103.781 232.703 105.796 232.703Z" fill="#2C2D2E" style="fill:#2C2D2E;fill:color(display-p3 0.1725 0.1765 0.1804);fill-opacity:1;"/>
<path d="M105.796 298.151C107.811 298.151 109.445 296.523 109.445 294.515C109.445 292.507 107.811 290.879 105.796 290.879C103.781 290.879 102.148 292.507 102.148 294.515C102.148 296.523 103.781 298.151 105.796 298.151Z" fill="#2C2D2E" style="fill:#2C2D2E;fill:color(display-p3 0.1725 0.1765 0.1804);fill-opacity:1;"/>
<path d="M113.093 101.807H120.389C122.406 101.807 124.037 100.181 124.037 98.1716V94.5355H127.685C129.702 94.5355 131.333 92.9092 131.333 90.8994C131.333 88.89 129.702 87.2637 127.685 87.2637H120.389C118.373 87.2637 116.741 88.89 116.741 90.8994V94.5355H113.093C111.076 94.5355 109.445 96.1618 109.445 98.1716C109.445 100.181 111.076 101.807 113.093 101.807Z" fill="#2C2D2E" style="fill:#2C2D2E;fill:color(display-p3 0.1725 0.1765 0.1804);fill-opacity:1;"/>
<path d="M113.093 116.351H116.741V119.988C116.741 121.997 118.373 123.624 120.389 123.624C122.406 123.624 124.037 121.997 124.037 119.988V112.716C124.037 110.706 122.406 109.08 120.389 109.08H113.093C111.076 109.08 109.445 110.706 109.445 112.716C109.445 114.725 111.076 116.351 113.093 116.351Z" fill="#2C2D2E" style="fill:#2C2D2E;fill:color(display-p3 0.1725 0.1765 0.1804);fill-opacity:1;"/>
<path d="M113.093 203.615C115.107 203.615 116.741 201.988 116.741 199.979C116.741 197.971 115.107 196.343 113.093 196.343C111.078 196.343 109.445 197.971 109.445 199.979C109.445 201.988 111.078 203.615 113.093 203.615Z" fill="#2C2D2E" style="fill:#2C2D2E;fill:color(display-p3 0.1725 0.1765 0.1804);fill-opacity:1;"/>
<path d="M113.093 239.975C115.107 239.975 116.741 238.347 116.741 236.339C116.741 234.331 115.107 232.703 113.093 232.703C111.078 232.703 109.445 234.331 109.445 236.339C109.445 238.347 111.078 239.975 113.093 239.975Z" fill="#2C2D2E" style="fill:#2C2D2E;fill:color(display-p3 0.1725 0.1765 0.1804);fill-opacity:1;"/>
<path d="M113.093 247.247H105.796C103.78 247.247 102.148 248.873 102.148 250.883V265.427C102.148 267.437 103.78 269.063 105.796 269.063C107.813 269.063 109.445 267.437 109.445 265.427V254.519H113.093C115.109 254.519 116.741 252.893 116.741 250.883C116.741 248.873 115.109 247.247 113.093 247.247Z" fill="#2C2D2E" style="fill:#2C2D2E;fill:color(display-p3 0.1725 0.1765 0.1804);fill-opacity:1;"/>
<path d="M120.389 7.27197H124.037V10.908C124.037 12.9177 125.669 14.5439 127.685 14.5439H138.63V32.7239C138.63 34.7337 140.261 36.36 142.278 36.36H149.574C151.59 36.36 153.222 34.7337 153.222 32.7239C153.222 30.7142 151.59 29.0879 149.574 29.0879H145.926V7.27197H149.574C151.59 7.27197 153.222 5.6457 153.222 3.636C153.222 1.62628 151.59 0 149.574 0H142.278C140.261 0 138.63 1.62628 138.63 3.636V7.27197H131.333V3.636C131.333 1.62628 129.701 0 127.685 0H120.389C118.372 0 116.741 1.62628 116.741 3.636C116.741 5.6457 118.372 7.27197 120.389 7.27197Z" fill="#2C2D2E" style="fill:#2C2D2E;fill:color(display-p3 0.1725 0.1765 0.1804);fill-opacity:1;"/>
<path d="M120.389 50.9037C122.404 50.9037 124.037 49.2758 124.037 47.2679C124.037 45.2598 122.404 43.6318 120.389 43.6318C118.374 43.6318 116.741 45.2598 116.741 47.2679C116.741 49.2758 118.374 50.9037 120.389 50.9037Z" fill="#2C2D2E" style="fill:#2C2D2E;fill:color(display-p3 0.1725 0.1765 0.1804);fill-opacity:1;"/>
<path d="M116.741 72.7196V76.3557C116.741 78.3655 118.372 79.9915 120.389 79.9915C122.405 79.9915 124.037 78.3655 124.037 76.3557V69.0839C124.037 67.0741 122.405 65.4478 120.389 65.4478C118.372 65.4478 116.741 67.0741 116.741 69.0839V72.7196Z" fill="#2C2D2E" style="fill:#2C2D2E;fill:color(display-p3 0.1725 0.1765 0.1804);fill-opacity:1;"/>
<path d="M120.389 159.983C118.372 159.983 116.741 161.61 116.741 163.62V170.891C116.741 172.901 118.372 174.527 120.389 174.527H127.685C129.701 174.527 131.333 172.901 131.333 170.891V167.255H138.63V174.527H134.981C132.965 174.527 131.333 176.153 131.333 178.163C131.333 180.173 132.965 181.799 134.981 181.799H153.222V192.707C153.222 194.717 154.854 196.343 156.87 196.343H164.166C166.183 196.343 167.815 194.717 167.815 192.707C167.815 190.698 166.183 189.071 164.166 189.071H160.519V178.163C160.519 176.153 158.887 174.527 156.87 174.527H153.222V170.891C153.222 168.882 151.59 167.255 149.574 167.255H145.926V163.62C145.926 161.61 144.294 159.983 142.278 159.983H131.333V152.712H134.981C136.998 152.712 138.63 151.085 138.63 149.075C138.63 147.066 136.998 145.439 134.981 145.439H131.333V141.804C131.333 139.794 129.701 138.167 127.685 138.167C125.669 138.167 124.037 139.794 124.037 141.804V145.439H120.389C118.372 145.439 116.741 147.066 116.741 149.075C116.741 151.085 118.372 152.712 120.389 152.712H124.037V159.983H120.389Z" fill="#2C2D2E" style="fill:#2C2D2E;fill:color(display-p3 0.1725 0.1765 0.1804);fill-opacity:1;"/>
<path d="M120.389 196.343C122.404 196.343 124.037 194.715 124.037 192.707C124.037 190.699 122.404 189.071 120.389 189.071C118.374 189.071 116.741 190.699 116.741 192.707C116.741 194.715 118.374 196.343 120.389 196.343Z" fill="#2C2D2E" style="fill:#2C2D2E;fill:color(display-p3 0.1725 0.1765 0.1804);fill-opacity:1;"/>
<path d="M120.389 276.335C122.404 276.335 124.037 274.707 124.037 272.699C124.037 270.691 122.404 269.063 120.389 269.063C118.374 269.063 116.741 270.691 116.741 272.699C116.741 274.707 118.374 276.335 120.389 276.335Z" fill="#2C2D2E" style="fill:#2C2D2E;fill:color(display-p3 0.1725 0.1765 0.1804);fill-opacity:1;"/>
<path d="M127.685 65.448C129.7 65.448 131.334 63.8201 131.334 61.8119C131.334 59.8037 129.7 58.1758 127.685 58.1758C125.67 58.1758 124.037 59.8037 124.037 61.8119C124.037 63.8201 125.67 65.448 127.685 65.448Z" fill="#2C2D2E" style="fill:#2C2D2E;fill:color(display-p3 0.1725 0.1765 0.1804);fill-opacity:1;"/>
<path d="M127.685 189.071C129.7 189.071 131.334 187.443 131.334 185.435C131.334 183.427 129.7 181.799 127.685 181.799C125.67 181.799 124.037 183.427 124.037 185.435C124.037 187.443 125.67 189.071 127.685 189.071Z" fill="#2C2D2E" style="fill:#2C2D2E;fill:color(display-p3 0.1725 0.1765 0.1804);fill-opacity:1;"/>
<path d="M127.685 239.975C129.7 239.975 131.334 238.347 131.334 236.339C131.334 234.331 129.7 232.703 127.685 232.703C125.67 232.703 124.037 234.331 124.037 236.339C124.037 238.347 125.67 239.975 127.685 239.975Z" fill="#2C2D2E" style="fill:#2C2D2E;fill:color(display-p3 0.1725 0.1765 0.1804);fill-opacity:1;"/>
<path d="M127.685 261.791C129.701 261.791 131.333 260.165 131.333 258.155V254.519H134.981C136.998 254.519 138.63 252.893 138.63 250.883C138.63 248.873 136.998 247.247 134.981 247.247H127.685C125.669 247.247 124.037 248.873 124.037 250.883V254.519H120.389C118.372 254.519 116.741 256.146 116.741 258.155C116.741 260.165 118.372 261.791 120.389 261.791H127.685Z" fill="#2C2D2E" style="fill:#2C2D2E;fill:color(display-p3 0.1725 0.1765 0.1804);fill-opacity:1;"/>
<path d="M134.981 36.3599H127.685C125.669 36.3599 124.037 37.9858 124.037 39.9956C124.037 42.0054 125.669 43.6317 127.685 43.6317H131.334V54.5397C131.334 56.5495 132.965 58.1755 134.981 58.1755C136.998 58.1755 138.63 56.5495 138.63 54.5397V39.9956C138.63 37.9858 136.998 36.3599 134.981 36.3599Z" fill="#2C2D2E" style="fill:#2C2D2E;fill:color(display-p3 0.1725 0.1765 0.1804);fill-opacity:1;"/>
<path d="M134.981 72.7196C136.996 72.7196 138.63 71.0917 138.63 69.0839C138.63 67.0757 136.996 65.4478 134.981 65.4478C132.967 65.4478 131.333 67.0757 131.333 69.0839C131.333 71.0917 132.967 72.7196 134.981 72.7196Z" fill="#2C2D2E" style="fill:#2C2D2E;fill:color(display-p3 0.1725 0.1765 0.1804);fill-opacity:1;"/>
<path d="M134.981 87.2636C136.996 87.2636 138.63 85.6357 138.63 83.6275C138.63 81.6193 136.996 79.9917 134.981 79.9917C132.967 79.9917 131.333 81.6193 131.333 83.6275C131.333 85.6357 132.967 87.2636 134.981 87.2636Z" fill="#2C2D2E" style="fill:#2C2D2E;fill:color(display-p3 0.1725 0.1765 0.1804);fill-opacity:1;"/>
<path d="M134.981 116.352C132.965 116.352 131.333 117.978 131.333 119.987V134.531C131.333 136.541 132.965 138.168 134.981 138.168C136.998 138.168 138.63 136.541 138.63 134.531V119.987C138.63 117.978 136.998 116.352 134.981 116.352Z" fill="#2C2D2E" style="fill:#2C2D2E;fill:color(display-p3 0.1725 0.1765 0.1804);fill-opacity:1;"/>
<path d="M142.278 65.448C144.292 65.448 145.926 63.8201 145.926 61.8119C145.926 59.8037 144.292 58.1758 142.278 58.1758C140.263 58.1758 138.63 59.8037 138.63 61.8119C138.63 63.8201 140.263 65.448 142.278 65.448Z" fill="#2C2D2E" style="fill:#2C2D2E;fill:color(display-p3 0.1725 0.1765 0.1804);fill-opacity:1;"/>
<path d="M142.278 79.9916C144.292 79.9916 145.926 78.3637 145.926 76.3558C145.926 74.3477 144.292 72.7197 142.278 72.7197C140.263 72.7197 138.63 74.3477 138.63 76.3558C138.63 78.3637 140.263 79.9916 142.278 79.9916Z" fill="#2C2D2E" style="fill:#2C2D2E;fill:color(display-p3 0.1725 0.1765 0.1804);fill-opacity:1;"/>
<path d="M142.278 116.351C144.292 116.351 145.926 114.724 145.926 112.716C145.926 110.708 144.292 109.08 142.278 109.08C140.263 109.08 138.63 110.708 138.63 112.716C138.63 114.724 140.263 116.351 142.278 116.351Z" fill="#2C2D2E" style="fill:#2C2D2E;fill:color(display-p3 0.1725 0.1765 0.1804);fill-opacity:1;"/>
<path d="M142.278 261.791C144.292 261.791 145.926 260.163 145.926 258.155C145.926 256.147 144.292 254.519 142.278 254.519C140.263 254.519 138.63 256.147 138.63 258.155C138.63 260.163 140.263 261.791 142.278 261.791Z" fill="#2C2D2E" style="fill:#2C2D2E;fill:color(display-p3 0.1725 0.1765 0.1804);fill-opacity:1;"/>
<path d="M149.574 50.9037C151.589 50.9037 153.222 49.2758 153.222 47.2679C153.222 45.2598 151.589 43.6318 149.574 43.6318C147.559 43.6318 145.926 45.2598 145.926 47.2679C145.926 49.2758 147.559 50.9037 149.574 50.9037Z" fill="#2C2D2E" style="fill:#2C2D2E;fill:color(display-p3 0.1725 0.1765 0.1804);fill-opacity:1;"/>
<path d="M149.574 130.896C147.558 130.896 145.926 132.522 145.926 134.532V149.076C145.926 151.085 147.558 152.711 149.574 152.711C151.59 152.711 153.222 151.085 153.222 149.076V138.168H167.815V141.804C167.815 143.813 169.447 145.439 171.463 145.439H178.759C180.776 145.439 182.408 143.813 182.408 141.804C182.408 139.794 180.776 138.168 178.759 138.168H175.111V134.532C175.111 132.522 173.479 130.896 171.463 130.896H167.815V127.26C167.815 125.25 166.183 123.624 164.167 123.624C162.15 123.624 160.519 125.25 160.519 127.26V130.896H149.574Z" fill="#2C2D2E" style="fill:#2C2D2E;fill:color(display-p3 0.1725 0.1765 0.1804);fill-opacity:1;"/>
<path d="M149.574 218.159H156.87C158.887 218.159 160.519 216.533 160.519 214.523V207.251C160.519 205.242 158.887 203.615 156.87 203.615H153.222V199.979C153.222 197.969 151.591 196.343 149.574 196.343H145.926V192.707C145.926 190.698 144.294 189.071 142.278 189.071H134.981C132.965 189.071 131.333 190.698 131.333 192.707C131.333 194.717 132.965 196.343 134.981 196.343H138.63V203.615H134.981C132.965 203.615 131.333 205.242 131.333 207.251V210.887H124.037V207.251C124.037 205.242 122.406 203.615 120.389 203.615C118.373 203.615 116.741 205.242 116.741 207.251V210.887H113.093C111.076 210.887 109.445 212.514 109.445 214.523C109.445 216.533 111.076 218.159 113.093 218.159H116.741V221.795C116.741 223.805 118.373 225.431 120.389 225.431H127.685C129.702 225.431 131.333 223.805 131.333 221.795V218.159H134.981C136.998 218.159 138.63 216.533 138.63 214.523V210.887H145.926V214.523C145.926 216.533 147.558 218.159 149.574 218.159Z" fill="#2C2D2E" style="fill:#2C2D2E;fill:color(display-p3 0.1725 0.1765 0.1804);fill-opacity:1;"/>
<path d="M149.574 283.607C151.591 283.607 153.222 281.981 153.222 279.971V272.699C153.222 270.689 151.591 269.063 149.574 269.063H138.63V265.427C138.63 263.417 136.998 261.791 134.981 261.791C132.965 261.791 131.333 263.417 131.333 265.427V272.699C131.333 274.709 132.965 276.335 134.981 276.335H145.926V279.971C145.926 281.981 147.558 283.607 149.574 283.607Z" fill="#2C2D2E" style="fill:#2C2D2E;fill:color(display-p3 0.1725 0.1765 0.1804);fill-opacity:1;"/>
<path d="M153.222 21.8159V25.4519C153.222 27.4616 154.854 29.0879 156.87 29.0879H160.519V36.36H156.87C154.854 36.36 153.222 37.986 153.222 39.9958C153.222 42.0056 154.854 43.6319 156.87 43.6319H160.519V47.268C160.519 49.2775 162.15 50.9038 164.167 50.9038C166.183 50.9038 167.815 49.2775 167.815 47.268V36.36H171.463C173.48 36.36 175.111 34.7337 175.111 32.7239V29.0879H178.759C180.776 29.0879 182.408 27.4616 182.408 25.4519V7.27197H186.055C188.072 7.27197 189.704 5.6457 189.704 3.636C189.704 1.62628 188.072 0 186.055 0H164.167C162.15 0 160.519 1.62628 160.519 3.636V14.5439H156.87C154.854 14.5439 153.222 16.1702 153.222 18.1799V21.8159ZM175.111 14.5439V21.8159H167.815V14.5439H175.111Z" fill="#2C2D2E" style="fill:#2C2D2E;fill:color(display-p3 0.1725 0.1765 0.1804);fill-opacity:1;"/>
<path d="M156.87 123.623C158.885 123.623 160.519 121.996 160.519 119.987C160.519 117.979 158.885 116.352 156.87 116.352C154.855 116.352 153.222 117.979 153.222 119.987C153.222 121.996 154.855 123.623 156.87 123.623Z" fill="#2C2D2E" style="fill:#2C2D2E;fill:color(display-p3 0.1725 0.1765 0.1804);fill-opacity:1;"/>
<path d="M164.167 167.256C166.183 167.256 167.815 165.629 167.815 163.619V156.348C167.815 154.338 166.183 152.711 164.167 152.711H156.87C154.854 152.711 153.222 154.338 153.222 156.348C153.222 158.357 154.854 159.984 156.87 159.984H160.519V163.619C160.519 165.629 162.15 167.256 164.167 167.256Z" fill="#2C2D2E" style="fill:#2C2D2E;fill:color(display-p3 0.1725 0.1765 0.1804);fill-opacity:1;"/>
<path d="M164.167 232.703C166.182 232.703 167.815 231.075 167.815 229.067C167.815 227.059 166.182 225.431 164.167 225.431C162.152 225.431 160.519 227.059 160.519 229.067C160.519 231.075 162.152 232.703 164.167 232.703Z" fill="#2C2D2E" style="fill:#2C2D2E;fill:color(display-p3 0.1725 0.1765 0.1804);fill-opacity:1;"/>
<path d="M171.463 174.527C173.478 174.527 175.111 172.899 175.111 170.891C175.111 168.883 173.478 167.255 171.463 167.255C169.448 167.255 167.815 168.883 167.815 170.891C167.815 172.899 169.448 174.527 171.463 174.527Z" fill="#2C2D2E" style="fill:#2C2D2E;fill:color(display-p3 0.1725 0.1765 0.1804);fill-opacity:1;"/>
<path d="M171.463 210.887C173.478 210.887 175.111 209.259 175.111 207.251C175.111 205.243 173.478 203.615 171.463 203.615C169.448 203.615 167.815 205.243 167.815 207.251C167.815 209.259 169.448 210.887 171.463 210.887Z" fill="#2C2D2E" style="fill:#2C2D2E;fill:color(display-p3 0.1725 0.1765 0.1804);fill-opacity:1;"/>
<path d="M171.463 225.431C173.478 225.431 175.111 223.803 175.111 221.795C175.111 219.787 173.478 218.159 171.463 218.159C169.448 218.159 167.815 219.787 167.815 221.795C167.815 223.803 169.448 225.431 171.463 225.431Z" fill="#2C2D2E" style="fill:#2C2D2E;fill:color(display-p3 0.1725 0.1765 0.1804);fill-opacity:1;"/>
<path d="M167.815 258.155C167.815 260.165 169.446 261.791 171.463 261.791H178.759C180.776 261.791 182.407 260.165 182.407 258.155V247.247H186.055C188.072 247.247 189.704 245.621 189.704 243.611C189.704 241.601 188.072 239.975 186.055 239.975H182.407V236.339C182.407 234.329 180.776 232.703 178.759 232.703H171.463C169.446 232.703 167.815 234.329 167.815 236.339V239.975H160.519V236.339C160.519 234.329 158.887 232.703 156.87 232.703C154.854 232.703 153.222 234.329 153.222 236.339V239.975H145.926V232.703H149.574C151.59 232.703 153.222 231.077 153.222 229.067C153.222 227.057 151.59 225.431 149.574 225.431H142.278C140.261 225.431 138.63 227.057 138.63 229.067V243.611C138.63 245.621 140.261 247.247 142.278 247.247H145.926V250.883C145.926 252.893 147.558 254.519 149.574 254.519H153.222V258.155C153.222 260.165 154.854 261.791 156.87 261.791C158.887 261.791 160.519 260.165 160.519 258.155V247.247H167.815V258.155Z" fill="#2C2D2E" style="fill:#2C2D2E;fill:color(display-p3 0.1725 0.1765 0.1804);fill-opacity:1;"/>
<path d="M171.463 298.151C173.478 298.151 175.111 296.523 175.111 294.515C175.111 292.507 173.478 290.879 171.463 290.879C169.448 290.879 167.815 292.507 167.815 294.515C167.815 296.523 169.448 298.151 171.463 298.151Z" fill="#2C2D2E" style="fill:#2C2D2E;fill:color(display-p3 0.1725 0.1765 0.1804);fill-opacity:1;"/>
<path d="M178.759 167.255C180.774 167.255 182.407 165.627 182.407 163.619C182.407 161.611 180.774 159.983 178.759 159.983C176.744 159.983 175.111 161.611 175.111 163.619C175.111 165.627 176.744 167.255 178.759 167.255Z" fill="#2C2D2E" style="fill:#2C2D2E;fill:color(display-p3 0.1725 0.1765 0.1804);fill-opacity:1;"/>
<path d="M178.759 203.615C180.774 203.615 182.407 201.988 182.407 199.979C182.407 197.971 180.774 196.343 178.759 196.343C176.744 196.343 175.111 197.971 175.111 199.979C175.111 201.988 176.744 203.615 178.759 203.615Z" fill="#2C2D2E" style="fill:#2C2D2E;fill:color(display-p3 0.1725 0.1765 0.1804);fill-opacity:1;"/>
<path d="M178.759 218.159C180.774 218.159 182.407 216.531 182.407 214.523C182.407 212.515 180.774 210.887 178.759 210.887C176.744 210.887 175.111 212.515 175.111 214.523C175.111 216.531 176.744 218.159 178.759 218.159Z" fill="#2C2D2E" style="fill:#2C2D2E;fill:color(display-p3 0.1725 0.1765 0.1804);fill-opacity:1;"/>
<path d="M178.759 290.879C180.774 290.879 182.407 289.251 182.407 287.243C182.407 285.235 180.774 283.607 178.759 283.607C176.744 283.607 175.111 285.235 175.111 287.243C175.111 289.251 176.744 290.879 178.759 290.879Z" fill="#2C2D2E" style="fill:#2C2D2E;fill:color(display-p3 0.1725 0.1765 0.1804);fill-opacity:1;"/>
<path d="M186.056 152.712C188.07 152.712 189.704 151.084 189.704 149.076C189.704 147.067 188.07 145.439 186.056 145.439C184.041 145.439 182.407 147.067 182.407 149.076C182.407 151.084 184.041 152.712 186.056 152.712Z" fill="#2C2D2E" style="fill:#2C2D2E;fill:color(display-p3 0.1725 0.1765 0.1804);fill-opacity:1;"/>
<path d="M186.056 232.703C188.07 232.703 189.704 231.075 189.704 229.067C189.704 227.059 188.07 225.431 186.056 225.431C184.041 225.431 182.407 227.059 182.407 229.067C182.407 231.075 184.041 232.703 186.056 232.703Z" fill="#2C2D2E" style="fill:#2C2D2E;fill:color(display-p3 0.1725 0.1765 0.1804);fill-opacity:1;"/>
<path d="M186.055 269.063H171.463C169.446 269.063 167.815 270.689 167.815 272.699V276.335H164.166C162.15 276.335 160.519 277.961 160.519 279.971V283.607H156.87C154.854 283.607 153.222 285.233 153.222 287.243V290.879H145.926V287.243C145.926 285.233 144.294 283.607 142.278 283.607H134.981C132.965 283.607 131.333 285.233 131.333 287.243V290.879H124.037V287.243C124.037 285.233 122.405 283.607 120.389 283.607C118.372 283.607 116.741 285.233 116.741 287.243V294.515C116.741 296.525 118.372 298.151 120.389 298.151H156.87C158.887 298.151 160.519 296.525 160.519 294.515V290.879H164.166C166.183 290.879 167.815 289.253 167.815 287.243V283.607H171.463C173.479 283.607 175.111 281.981 175.111 279.971V276.335H186.055C188.072 276.335 189.704 274.709 189.704 272.699C189.704 270.689 188.072 269.063 186.055 269.063Z" fill="#2C2D2E" style="fill:#2C2D2E;fill:color(display-p3 0.1725 0.1765 0.1804);fill-opacity:1;"/>
<path d="M189.704 50.9037H182.408V43.6319H186.055C188.072 43.6319 189.704 42.0056 189.704 39.9958V32.7239C189.704 30.7142 188.072 29.0879 186.055 29.0879C184.039 29.0879 182.408 30.7142 182.408 32.7239V36.36H178.759C176.743 36.36 175.111 37.9863 175.111 39.9958V50.9037H171.463C169.447 50.9037 167.815 52.53 167.815 54.5398V58.1759H160.519V54.5398C160.519 52.53 158.887 50.9037 156.87 50.9037C154.854 50.9037 153.222 52.53 153.222 54.5398V61.8117C153.222 63.8215 154.854 65.4478 156.87 65.4478H171.463C173.479 65.4478 175.111 63.8215 175.111 61.8117V58.1759H182.408V61.8117C182.408 63.8215 184.039 65.4478 186.055 65.4478C188.072 65.4478 189.704 63.8215 189.704 61.8117V58.1759H197V61.8117C197 63.8215 198.632 65.4478 200.648 65.4478H211.593V72.7197H182.408V69.0839C182.408 67.0741 180.776 65.4478 178.759 65.4478C176.743 65.4478 175.111 67.0741 175.111 69.0839V72.7197H156.87C154.854 72.7197 153.222 74.346 153.222 76.3558C153.222 78.3656 154.854 79.9919 156.87 79.9919H175.111V87.2638H171.463C169.447 87.2638 167.815 88.8901 167.815 90.8995C167.815 92.9093 169.447 94.5356 171.463 94.5356H175.111V101.808H167.815V98.1717C167.815 96.1619 166.183 94.5356 164.167 94.5356H149.574C147.558 94.5356 145.926 96.1619 145.926 98.1717C145.926 100.182 147.558 101.808 149.574 101.808H160.519V105.444C160.519 107.453 162.15 109.08 164.167 109.08H167.815V112.715C167.815 114.725 169.447 116.352 171.463 116.352C173.479 116.352 175.111 114.725 175.111 112.715V109.08H178.759C180.776 109.08 182.408 107.453 182.408 105.444V87.2638H186.055C188.072 87.2638 189.704 85.6375 189.704 83.6277V79.9919H218.889V98.1717C218.889 100.182 220.521 101.808 222.537 101.808H237.129C239.146 101.808 240.778 100.182 240.778 98.1717C240.778 96.1619 239.146 94.5356 237.129 94.5356H233.482V90.8995C233.482 88.8901 231.85 87.2638 229.833 87.2638H226.185V76.3558C226.185 74.346 224.554 72.7197 222.537 72.7197H218.889V58.1759H229.833C231.85 58.1759 233.482 56.5496 233.482 54.5398C233.482 52.53 231.85 50.9037 229.833 50.9037H226.185V47.268C226.185 45.2582 224.554 43.6319 222.537 43.6319C220.521 43.6319 218.889 45.2582 218.889 47.268V50.9037H215.241C213.224 50.9037 211.593 52.53 211.593 54.5398V58.1759H204.296V54.5398C204.296 52.53 202.665 50.9037 200.648 50.9037H197V47.268C197 45.2582 195.368 43.6319 193.352 43.6319C191.335 43.6319 189.704 45.2582 189.704 47.268V50.9037Z" fill="#2C2D2E" style="fill:#2C2D2E;fill:color(display-p3 0.1725 0.1765 0.1804);fill-opacity:1;"/>
<path d="M193.352 101.808C191.335 101.808 189.704 103.434 189.704 105.444V109.08H186.056C184.039 109.08 182.407 110.706 182.407 112.716C182.407 114.725 184.039 116.352 186.056 116.352H193.352C195.368 116.352 197 114.725 197 112.716V105.444C197 103.434 195.368 101.808 193.352 101.808Z" fill="#2C2D2E" style="fill:#2C2D2E;fill:color(display-p3 0.1725 0.1765 0.1804);fill-opacity:1;"/>
<path d="M193.352 167.255C191.335 167.255 189.704 168.882 189.704 170.891V174.527H178.759C176.743 174.527 175.111 176.154 175.111 178.163V181.799H171.463C169.446 181.799 167.815 183.426 167.815 185.435C167.815 187.445 169.446 189.071 171.463 189.071H182.407V192.707C182.407 194.717 184.039 196.343 186.055 196.343C188.072 196.343 189.704 194.717 189.704 192.707V181.799H197V185.435C197 187.445 198.632 189.071 200.648 189.071C202.665 189.071 204.296 187.445 204.296 185.435V178.163C204.296 176.154 202.665 174.527 200.648 174.527H197V170.891C197 168.882 195.368 167.255 193.352 167.255Z" fill="#2C2D2E" style="fill:#2C2D2E;fill:color(display-p3 0.1725 0.1765 0.1804);fill-opacity:1;"/>
<path d="M189.704 214.523V221.795C189.704 223.805 191.335 225.431 193.352 225.431H200.648C202.664 225.431 204.296 223.805 204.296 221.795V218.159H207.944C209.961 218.159 211.593 216.533 211.593 214.523C211.593 212.514 209.961 210.887 207.944 210.887H193.352C191.335 210.887 189.704 212.514 189.704 214.523Z" fill="#2C2D2E" style="fill:#2C2D2E;fill:color(display-p3 0.1725 0.1765 0.1804);fill-opacity:1;"/>
<path d="M193.352 254.519C195.367 254.519 197 252.891 197 250.883C197 248.875 195.367 247.247 193.352 247.247C191.337 247.247 189.704 248.875 189.704 250.883C189.704 252.891 191.337 254.519 193.352 254.519Z" fill="#2C2D2E" style="fill:#2C2D2E;fill:color(display-p3 0.1725 0.1765 0.1804);fill-opacity:1;"/>
<path d="M193.352 269.063C195.367 269.063 197 267.435 197 265.427C197 263.419 195.367 261.791 193.352 261.791C191.337 261.791 189.704 263.419 189.704 265.427C189.704 267.435 191.337 269.063 193.352 269.063Z" fill="#2C2D2E" style="fill:#2C2D2E;fill:color(display-p3 0.1725 0.1765 0.1804);fill-opacity:1;"/>
<path d="M200.648 7.27197C202.663 7.27197 204.296 5.64408 204.296 3.636C204.296 1.62789 202.663 0 200.648 0C198.633 0 197 1.62789 197 3.636C197 5.64408 198.633 7.27197 200.648 7.27197Z" fill="#2C2D2E" style="fill:#2C2D2E;fill:color(display-p3 0.1725 0.1765 0.1804);fill-opacity:1;"/>
<path d="M200.648 29.0879C202.663 29.0879 204.296 27.46 204.296 25.4519C204.296 23.4438 202.663 21.8159 200.648 21.8159C198.633 21.8159 197 23.4438 197 25.4519C197 27.46 198.633 29.0879 200.648 29.0879Z" fill="#2C2D2E" style="fill:#2C2D2E;fill:color(display-p3 0.1725 0.1765 0.1804);fill-opacity:1;"/>
<path d="M204.296 239.975H215.241C217.257 239.975 218.889 238.349 218.889 236.339V229.067C218.889 227.057 217.257 225.431 215.241 225.431C213.224 225.431 211.593 227.057 211.593 229.067V232.703H193.352C191.335 232.703 189.704 234.329 189.704 236.339C189.704 238.349 191.335 239.975 193.352 239.975H204.296Z" fill="#2C2D2E" style="fill:#2C2D2E;fill:color(display-p3 0.1725 0.1765 0.1804);fill-opacity:1;"/>
<path d="M200.648 290.879H193.352C191.335 290.879 189.704 292.505 189.704 294.515C189.704 296.525 191.335 298.151 193.352 298.151H200.648C202.664 298.151 204.296 296.525 204.296 294.515C204.296 292.505 202.664 290.879 200.648 290.879Z" fill="#2C2D2E" style="fill:#2C2D2E;fill:color(display-p3 0.1725 0.1765 0.1804);fill-opacity:1;"/>
<path d="M207.944 21.8159C209.959 21.8159 211.593 20.188 211.593 18.1799C211.593 16.1718 209.959 14.5439 207.944 14.5439C205.93 14.5439 204.296 16.1718 204.296 18.1799C204.296 20.188 205.93 21.8159 207.944 21.8159Z" fill="#2C2D2E" style="fill:#2C2D2E;fill:color(display-p3 0.1725 0.1765 0.1804);fill-opacity:1;"/>
<path d="M207.944 36.36C209.959 36.36 211.593 34.7321 211.593 32.7239C211.593 30.7158 209.959 29.0879 207.944 29.0879C205.93 29.0879 204.296 30.7158 204.296 32.7239C204.296 34.7321 205.93 36.36 207.944 36.36Z" fill="#2C2D2E" style="fill:#2C2D2E;fill:color(display-p3 0.1725 0.1765 0.1804);fill-opacity:1;"/>
<path d="M207.944 50.9037C209.959 50.9037 211.593 49.2758 211.593 47.2679C211.593 45.2598 209.959 43.6318 207.944 43.6318C205.93 43.6318 204.296 45.2598 204.296 47.2679C204.296 49.2758 205.93 50.9037 207.944 50.9037Z" fill="#2C2D2E" style="fill:#2C2D2E;fill:color(display-p3 0.1725 0.1765 0.1804);fill-opacity:1;"/>
<path d="M204.296 116.352H200.648C198.632 116.352 197 117.978 197 119.987V127.26C197 129.269 198.632 130.895 200.648 130.895C202.665 130.895 204.296 129.269 204.296 127.26V123.623H211.593V127.26C211.593 129.269 213.224 130.895 215.241 130.895C217.257 130.895 218.889 129.269 218.889 127.26V116.352H229.833C231.85 116.352 233.482 114.725 233.482 112.715C233.482 110.706 231.85 109.08 229.833 109.08H218.889V105.444C218.889 103.434 217.257 101.808 215.241 101.808H211.593V98.1717C211.593 96.1619 209.961 94.5356 207.944 94.5356C205.928 94.5356 204.296 96.1619 204.296 98.1717V105.444C204.296 107.453 205.928 109.08 207.944 109.08H211.593V116.352H204.296Z" fill="#2C2D2E" style="fill:#2C2D2E;fill:color(display-p3 0.1725 0.1765 0.1804);fill-opacity:1;"/>
<path d="M207.944 174.527C209.959 174.527 211.593 172.899 211.593 170.891C211.593 168.883 209.959 167.255 207.944 167.255C205.93 167.255 204.296 168.883 204.296 170.891C204.296 172.899 205.93 174.527 207.944 174.527Z" fill="#2C2D2E" style="fill:#2C2D2E;fill:color(display-p3 0.1725 0.1765 0.1804);fill-opacity:1;"/>
<path d="M222.537 7.27197C224.552 7.27197 226.185 5.64408 226.185 3.636C226.185 1.62789 224.552 0 222.537 0C220.522 0 218.889 1.62789 218.889 3.636C218.889 5.64408 220.522 7.27197 222.537 7.27197Z" fill="#2C2D2E" style="fill:#2C2D2E;fill:color(display-p3 0.1725 0.1765 0.1804);fill-opacity:1;"/>
<path d="M222.537 189.071C224.554 189.071 226.185 187.445 226.185 185.435C226.185 183.426 224.554 181.799 222.537 181.799H215.241C213.224 181.799 211.593 183.426 211.593 185.435V189.071H207.944C205.928 189.071 204.296 190.697 204.296 192.707V196.343H200.648C198.632 196.343 197 197.969 197 199.979C197 201.989 198.632 203.615 200.648 203.615H211.593V207.251C211.593 209.261 213.224 210.887 215.241 210.887H222.537C224.554 210.887 226.185 209.261 226.185 207.251V199.979C226.185 197.969 224.554 196.343 222.537 196.343H218.889V189.071H222.537Z" fill="#2C2D2E" style="fill:#2C2D2E;fill:color(display-p3 0.1725 0.1765 0.1804);fill-opacity:1;"/>
<path d="M226.185 21.8159V25.4519C226.185 27.4616 227.817 29.0879 229.833 29.0879H233.481V32.7239C233.481 34.7337 235.113 36.36 237.13 36.36C239.146 36.36 240.778 34.7337 240.778 32.7239V18.1799C240.778 16.1702 239.146 14.5439 237.13 14.5439H229.833C227.817 14.5439 226.185 16.1702 226.185 18.1799V21.8159Z" fill="#2C2D2E" style="fill:#2C2D2E;fill:color(display-p3 0.1725 0.1765 0.1804);fill-opacity:1;"/>
<path d="M229.833 130.896C231.848 130.896 233.481 129.268 233.481 127.26C233.481 125.251 231.848 123.624 229.833 123.624C227.819 123.624 226.185 125.251 226.185 127.26C226.185 129.268 227.819 130.896 229.833 130.896Z" fill="#2C2D2E" style="fill:#2C2D2E;fill:color(display-p3 0.1725 0.1765 0.1804);fill-opacity:1;"/>
<path d="M229.833 159.983C227.817 159.983 226.185 161.61 226.185 163.619V170.891C226.185 172.901 227.817 174.527 229.833 174.527H237.13C239.146 174.527 240.778 172.901 240.778 170.891C240.778 168.882 239.146 167.255 237.13 167.255H233.481V163.619C233.481 161.61 231.85 159.983 229.833 159.983Z" fill="#2C2D2E" style="fill:#2C2D2E;fill:color(display-p3 0.1725 0.1765 0.1804);fill-opacity:1;"/>
<path d="M229.833 269.063H226.185V258.155C226.185 256.146 224.554 254.519 222.537 254.519H218.889V250.883C218.889 248.873 217.257 247.247 215.241 247.247C213.224 247.247 211.593 248.873 211.593 250.883V254.519H207.944C205.928 254.519 204.296 256.146 204.296 258.155C204.296 260.165 205.928 261.791 207.944 261.791H218.889V283.607H215.241C213.224 283.607 211.593 285.233 211.593 287.243V294.515C211.593 296.525 213.224 298.151 215.241 298.151H222.537C224.554 298.151 226.185 296.525 226.185 294.515V276.335H229.833C231.85 276.335 233.481 274.709 233.481 272.699C233.481 270.689 231.85 269.063 229.833 269.063Z" fill="#2C2D2E" style="fill:#2C2D2E;fill:color(display-p3 0.1725 0.1765 0.1804);fill-opacity:1;"/>
<path d="M237.129 7.27197C239.144 7.27197 240.778 5.64408 240.778 3.636C240.778 1.62789 239.144 0 237.129 0C235.115 0 233.481 1.62789 233.481 3.636C233.481 5.64408 235.115 7.27197 237.129 7.27197Z" fill="#2C2D2E" style="fill:#2C2D2E;fill:color(display-p3 0.1725 0.1765 0.1804);fill-opacity:1;"/>
<path d="M237.129 50.9037C239.144 50.9037 240.778 49.2758 240.778 47.2679C240.778 45.2598 239.144 43.6318 237.129 43.6318C235.115 43.6318 233.481 45.2598 233.481 47.2679C233.481 49.2758 235.115 50.9037 237.129 50.9037Z" fill="#2C2D2E" style="fill:#2C2D2E;fill:color(display-p3 0.1725 0.1765 0.1804);fill-opacity:1;"/>
<path d="M237.129 123.623C239.144 123.623 240.778 121.996 240.778 119.987C240.778 117.979 239.144 116.352 237.129 116.352C235.115 116.352 233.481 117.979 233.481 119.987C233.481 121.996 235.115 123.623 237.129 123.623Z" fill="#2C2D2E" style="fill:#2C2D2E;fill:color(display-p3 0.1725 0.1765 0.1804);fill-opacity:1;"/>
<path d="M237.129 189.071C239.144 189.071 240.778 187.443 240.778 185.435C240.778 183.427 239.144 181.799 237.129 181.799C235.115 181.799 233.481 183.427 233.481 185.435C233.481 187.443 235.115 189.071 237.129 189.071Z" fill="#2C2D2E" style="fill:#2C2D2E;fill:color(display-p3 0.1725 0.1765 0.1804);fill-opacity:1;"/>
<path d="M237.129 203.615C239.144 203.615 240.778 201.988 240.778 199.979C240.778 197.971 239.144 196.343 237.129 196.343C235.115 196.343 233.481 197.971 233.481 199.979C233.481 201.988 235.115 203.615 237.129 203.615Z" fill="#2C2D2E" style="fill:#2C2D2E;fill:color(display-p3 0.1725 0.1765 0.1804);fill-opacity:1;"/>
<path d="M240.778 283.607V279.971C240.778 277.961 239.146 276.335 237.129 276.335C235.113 276.335 233.481 277.961 233.481 279.971V287.243C233.481 289.253 235.113 290.879 237.129 290.879C239.146 290.879 240.778 289.253 240.778 287.243V283.607Z" fill="#2C2D2E" style="fill:#2C2D2E;fill:color(display-p3 0.1725 0.1765 0.1804);fill-opacity:1;"/>
<path d="M244.426 196.343C246.441 196.343 248.074 194.715 248.074 192.707C248.074 190.699 246.441 189.071 244.426 189.071C242.411 189.071 240.778 190.699 240.778 192.707C240.778 194.715 242.411 196.343 244.426 196.343Z" fill="#2C2D2E" style="fill:#2C2D2E;fill:color(display-p3 0.1725 0.1765 0.1804);fill-opacity:1;"/>
<path d="M244.426 298.151C246.441 298.151 248.074 296.523 248.074 294.515C248.074 292.507 246.441 290.879 244.426 290.879C242.411 290.879 240.778 292.507 240.778 294.515C240.778 296.523 242.411 298.151 244.426 298.151Z" fill="#2C2D2E" style="fill:#2C2D2E;fill:color(display-p3 0.1725 0.1765 0.1804);fill-opacity:1;"/>
<path d="M251.722 167.255C253.739 167.255 255.37 165.629 255.37 163.619C255.37 161.61 253.739 159.983 251.722 159.983H244.426C242.409 159.983 240.778 161.61 240.778 163.619C240.778 165.629 242.409 167.255 244.426 167.255H251.722Z" fill="#2C2D2E" style="fill:#2C2D2E;fill:color(display-p3 0.1725 0.1765 0.1804);fill-opacity:1;"/>
<path d="M251.722 254.519C253.737 254.519 255.37 252.891 255.37 250.883C255.37 248.875 253.737 247.247 251.722 247.247C249.707 247.247 248.074 248.875 248.074 250.883C248.074 252.891 249.707 254.519 251.722 254.519Z" fill="#2C2D2E" style="fill:#2C2D2E;fill:color(display-p3 0.1725 0.1765 0.1804);fill-opacity:1;"/>
<path d="M251.722 290.879C253.737 290.879 255.37 289.251 255.37 287.243C255.37 285.235 253.737 283.607 251.722 283.607C249.707 283.607 248.074 285.235 248.074 287.243C248.074 289.251 249.707 290.879 251.722 290.879Z" fill="#2C2D2E" style="fill:#2C2D2E;fill:color(display-p3 0.1725 0.1765 0.1804);fill-opacity:1;"/>
<path d="M259.019 65.448C261.035 65.448 262.667 63.8217 262.667 61.8119C262.667 59.8021 261.035 58.1758 259.019 58.1758H237.13C235.113 58.1758 233.481 59.8021 233.481 61.8119V65.448H229.833C227.817 65.448 226.185 67.0743 226.185 69.0838C226.185 71.0936 227.817 72.7199 229.833 72.7199H233.481V83.6278C233.481 85.6376 235.113 87.2639 237.13 87.2639H240.778V90.8997C240.778 92.9095 242.409 94.5358 244.426 94.5358H248.074V109.08H244.426C242.409 109.08 240.778 110.706 240.778 112.716C240.778 114.725 242.409 116.352 244.426 116.352H248.074V127.26C248.074 129.27 249.706 130.896 251.722 130.896C253.739 130.896 255.37 129.27 255.37 127.26V116.352H262.667V119.988C262.667 121.997 264.298 123.624 266.315 123.624H273.611C275.628 123.624 277.259 121.997 277.259 119.988V116.352H280.907C282.924 116.352 284.556 114.725 284.556 112.716C284.556 110.706 282.924 109.08 280.907 109.08H255.37V94.5358H259.019C261.035 94.5358 262.667 92.9095 262.667 90.8997C262.667 88.8902 261.035 87.2639 259.019 87.2639H248.074V79.9917H266.315C268.331 79.9917 269.963 78.3654 269.963 76.356V72.7199H277.259V76.356C277.259 78.3654 278.891 79.9917 280.907 79.9917C282.924 79.9917 284.556 78.3654 284.556 76.356V72.7199H288.204C290.22 72.7199 291.852 71.0936 291.852 69.0838V61.8119C291.852 59.8021 290.22 58.1758 288.204 58.1758C286.187 58.1758 284.556 59.8021 284.556 61.8119V65.448H277.259V61.8119C277.259 59.8021 275.628 58.1758 273.611 58.1758C271.595 58.1758 269.963 59.8021 269.963 61.8119V65.448H266.315C264.298 65.448 262.667 67.0743 262.667 69.0838V72.7199H255.37V65.448H259.019ZM248.074 72.7199H240.778V65.448H248.074V72.7199Z" fill="#2C2D2E" style="fill:#2C2D2E;fill:color(display-p3 0.1725 0.1765 0.1804);fill-opacity:1;"/>
<path d="M259.019 196.343C261.033 196.343 262.667 194.715 262.667 192.707C262.667 190.699 261.033 189.071 259.019 189.071C257.004 189.071 255.37 190.699 255.37 192.707C255.37 194.715 257.004 196.343 259.019 196.343Z" fill="#2C2D2E" style="fill:#2C2D2E;fill:color(display-p3 0.1725 0.1765 0.1804);fill-opacity:1;"/>
<path d="M259.019 283.607C261.033 283.607 262.667 281.979 262.667 279.971C262.667 277.963 261.033 276.335 259.019 276.335C257.004 276.335 255.37 277.963 255.37 279.971C255.37 281.979 257.004 283.607 259.019 283.607Z" fill="#2C2D2E" style="fill:#2C2D2E;fill:color(display-p3 0.1725 0.1765 0.1804);fill-opacity:1;"/>
<path d="M266.315 210.887C268.33 210.887 269.963 209.259 269.963 207.251C269.963 205.243 268.33 203.615 266.315 203.615C264.3 203.615 262.667 205.243 262.667 207.251C262.667 209.259 264.3 210.887 266.315 210.887Z" fill="#2C2D2E" style="fill:#2C2D2E;fill:color(display-p3 0.1725 0.1765 0.1804);fill-opacity:1;"/>
<path d="M266.315 298.151C268.33 298.151 269.963 296.523 269.963 294.515C269.963 292.507 268.33 290.879 266.315 290.879C264.3 290.879 262.667 292.507 262.667 294.515C262.667 296.523 264.3 298.151 266.315 298.151Z" fill="#2C2D2E" style="fill:#2C2D2E;fill:color(display-p3 0.1725 0.1765 0.1804);fill-opacity:1;"/>
<path d="M284.555 130.895H288.204C290.22 130.895 291.852 129.269 291.852 127.26V119.987C291.852 117.978 290.22 116.352 288.204 116.352C286.187 116.352 284.555 117.978 284.555 119.987V123.623H280.907C278.891 123.623 277.259 125.25 277.259 127.26V134.531C277.259 136.541 278.891 138.168 280.907 138.168C282.924 138.168 284.555 136.541 284.555 134.531V130.895Z" fill="#2C2D2E" style="fill:#2C2D2E;fill:color(display-p3 0.1725 0.1765 0.1804);fill-opacity:1;"/>
<path d="M280.907 159.984C282.924 159.984 284.556 158.357 284.556 156.348V149.076C284.556 147.066 282.924 145.44 280.907 145.44H269.963V141.803C269.963 139.794 268.331 138.168 266.315 138.168H248.074V134.532C248.074 132.522 246.442 130.896 244.426 130.896C242.409 130.896 240.778 132.522 240.778 134.532V145.44H233.482V141.803C233.482 139.794 231.85 138.168 229.833 138.168H211.593V134.532C211.593 132.522 209.961 130.896 207.944 130.896C205.928 130.896 204.296 132.522 204.296 134.532V152.711H200.648C198.632 152.711 197 154.338 197 156.348V163.619C197 165.629 198.632 167.256 200.648 167.256C202.665 167.256 204.296 165.629 204.296 163.619V159.984H215.241C217.257 159.984 218.889 158.357 218.889 156.348C218.889 154.338 217.257 152.711 215.241 152.711H211.593V145.44H218.889V149.076C218.889 151.085 220.521 152.711 222.537 152.711H262.667V163.619C262.667 165.629 264.298 167.256 266.315 167.256C268.331 167.256 269.963 165.629 269.963 163.619V152.711H277.259V156.348C277.259 158.357 278.891 159.984 280.907 159.984Z" fill="#2C2D2E" style="fill:#2C2D2E;fill:color(display-p3 0.1725 0.1765 0.1804);fill-opacity:1;"/>
<path d="M280.907 196.343C282.922 196.343 284.555 194.715 284.555 192.707C284.555 190.699 282.922 189.071 280.907 189.071C278.893 189.071 277.259 190.699 277.259 192.707C277.259 194.715 278.893 196.343 280.907 196.343Z" fill="#2C2D2E" style="fill:#2C2D2E;fill:color(display-p3 0.1725 0.1765 0.1804);fill-opacity:1;"/>
<path d="M284.556 218.159H295.5C297.517 218.159 299.148 216.533 299.148 214.523C299.148 212.514 297.517 210.887 295.5 210.887H273.611C271.595 210.887 269.963 212.514 269.963 214.523V218.159H248.074V214.523C248.074 212.514 246.442 210.887 244.426 210.887C242.409 210.887 240.778 212.514 240.778 214.523V218.159H233.482V214.523C233.482 212.514 231.85 210.887 229.833 210.887C227.817 210.887 226.185 212.514 226.185 214.523V218.159H222.537C220.521 218.159 218.889 219.785 218.889 221.795C218.889 223.805 220.521 225.431 222.537 225.431H226.185V243.611C226.185 245.621 227.817 247.247 229.833 247.247H233.482V265.427C233.482 267.437 235.113 269.063 237.129 269.063H240.778V272.699C240.778 274.709 242.409 276.335 244.426 276.335C246.442 276.335 248.074 274.709 248.074 272.699V269.063H277.259V279.971C277.259 281.981 278.891 283.607 280.907 283.607C282.924 283.607 284.556 281.981 284.556 279.971V276.335H288.204C290.22 276.335 291.852 274.709 291.852 272.699C291.852 270.689 290.22 269.063 288.204 269.063H284.556V265.427C284.556 263.417 282.924 261.791 280.907 261.791H269.963V254.519H273.611C275.628 254.519 277.259 252.893 277.259 250.883V243.611C277.259 241.601 275.628 239.975 273.611 239.975H269.963V236.339C269.963 234.329 268.331 232.703 266.315 232.703H262.667V225.431H269.963V229.067C269.963 231.077 271.595 232.703 273.611 232.703H284.556V258.155C284.556 260.165 286.187 261.791 288.204 261.791H291.852V265.427C291.852 267.437 293.483 269.063 295.5 269.063C297.517 269.063 299.148 267.437 299.148 265.427V258.155C299.148 256.145 297.517 254.519 295.5 254.519H291.852V247.247H295.5C297.517 247.247 299.148 245.621 299.148 243.611V236.339C299.148 234.329 297.517 232.703 295.5 232.703H291.852V229.067C291.852 227.058 290.22 225.431 288.204 225.431H277.259V218.159H284.556ZM233.482 225.431H240.778V232.703H233.482V225.431ZM262.667 247.247V261.791H240.778V239.975H262.667V247.247ZM255.37 232.703H248.074V225.431H255.37V232.703Z" fill="#2C2D2E" style="fill:#2C2D2E;fill:color(display-p3 0.1725 0.1765 0.1804);fill-opacity:1;"/>
<path d="M280.907 298.151C282.922 298.151 284.555 296.523 284.555 294.515C284.555 292.507 282.922 290.879 280.907 290.879C278.893 290.879 277.259 292.507 277.259 294.515C277.259 296.523 278.893 298.151 280.907 298.151Z" fill="#2C2D2E" style="fill:#2C2D2E;fill:color(display-p3 0.1725 0.1765 0.1804);fill-opacity:1;"/>
<path d="M288.204 203.615C290.218 203.615 291.852 201.988 291.852 199.979C291.852 197.971 290.218 196.343 288.204 196.343C286.189 196.343 284.556 197.971 284.556 199.979C284.556 201.988 286.189 203.615 288.204 203.615Z" fill="#2C2D2E" style="fill:#2C2D2E;fill:color(display-p3 0.1725 0.1765 0.1804);fill-opacity:1;"/>
<path d="M295.5 79.9916C297.515 79.9916 299.148 78.3637 299.148 76.3558C299.148 74.3477 297.515 72.7197 295.5 72.7197C293.485 72.7197 291.852 74.3477 291.852 76.3558C291.852 78.3637 293.485 79.9916 295.5 79.9916Z" fill="#2C2D2E" style="fill:#2C2D2E;fill:color(display-p3 0.1725 0.1765 0.1804);fill-opacity:1;"/>
<path d="M295.5 94.5355H284.556V90.8994C284.556 88.89 282.924 87.2637 280.908 87.2637H273.611C271.595 87.2637 269.963 88.89 269.963 90.8994C269.963 92.9092 271.595 94.5355 273.611 94.5355H277.259V98.1716C277.259 100.181 278.891 101.807 280.908 101.807H284.556V105.444C284.556 107.453 286.187 109.08 288.204 109.08C290.22 109.08 291.852 107.453 291.852 105.444V101.807H295.5C297.517 101.807 299.148 100.181 299.148 98.1716C299.148 96.1618 297.517 94.5355 295.5 94.5355Z" fill="#2C2D2E" style="fill:#2C2D2E;fill:color(display-p3 0.1725 0.1765 0.1804);fill-opacity:1;"/>
<path d="M295.5 116.351C297.515 116.351 299.148 114.724 299.148 112.716C299.148 110.708 297.515 109.08 295.5 109.08C293.485 109.08 291.852 110.708 291.852 112.716C291.852 114.724 293.485 116.351 295.5 116.351Z" fill="#2C2D2E" style="fill:#2C2D2E;fill:color(display-p3 0.1725 0.1765 0.1804);fill-opacity:1;"/>
<path d="M295.5 159.984C297.515 159.984 299.148 158.356 299.148 156.348C299.148 154.339 297.515 152.711 295.5 152.711C293.485 152.711 291.852 154.339 291.852 156.348C291.852 158.356 293.485 159.984 295.5 159.984Z" fill="#2C2D2E" style="fill:#2C2D2E;fill:color(display-p3 0.1725 0.1765 0.1804);fill-opacity:1;"/>
<path d="M295.5 167.255C293.484 167.255 291.852 168.882 291.852 170.891V174.527H284.556V170.891C284.556 168.882 282.924 167.255 280.908 167.255C278.891 167.255 277.259 168.882 277.259 170.891V174.527H262.667V170.891C262.667 168.882 261.035 167.255 259.019 167.255C257.002 167.255 255.37 168.882 255.37 170.891V178.163C255.37 180.173 257.002 181.799 259.019 181.799H284.556V185.435C284.556 187.445 286.187 189.071 288.204 189.071C290.22 189.071 291.852 187.445 291.852 185.435V181.799H295.5C297.517 181.799 299.148 180.173 299.148 178.163V170.891C299.148 168.882 297.517 167.255 295.5 167.255Z" fill="#2C2D2E" style="fill:#2C2D2E;fill:color(display-p3 0.1725 0.1765 0.1804);fill-opacity:1;"/>
<path d="M295.5 196.343C297.515 196.343 299.148 194.715 299.148 192.707C299.148 190.699 297.515 189.071 295.5 189.071C293.485 189.071 291.852 190.699 291.852 192.707C291.852 194.715 293.485 196.343 295.5 196.343Z" fill="#2C2D2E" style="fill:#2C2D2E;fill:color(display-p3 0.1725 0.1765 0.1804);fill-opacity:1;"/>
<path d="M295.5 283.607H288.204C286.187 283.607 284.556 285.233 284.556 287.243C284.556 289.253 286.187 290.879 288.204 290.879H295.5C297.517 290.879 299.148 289.253 299.148 287.243C299.148 285.233 297.517 283.607 295.5 283.607Z" fill="#2C2D2E" style="fill:#2C2D2E;fill:color(display-p3 0.1725 0.1765 0.1804);fill-opacity:1;"/>
<path d="M18.2407 50.9038H32.8334C42.9088 50.9038 51.074 42.7658 51.074 32.7239V18.1799C51.074 8.138 42.9088 0 32.8334 0H18.2407C8.16522 0 0 8.138 0 18.1799V32.7239C0 42.7658 8.16522 50.9038 18.2407 50.9038ZM7.29629 18.1799C7.29629 12.1574 12.1981 7.27197 18.2407 7.27197H32.8334C38.8761 7.27197 43.7778 12.1574 43.7778 18.1799V32.7239C43.7778 38.7465 38.8761 43.6319 32.8334 43.6319H18.2407C12.1981 43.6319 7.29629 38.7465 7.29629 32.7239V18.1799Z" fill="#2C2D2E" style="fill:#2C2D2E;fill:color(display-p3 0.1725 0.1765 0.1804);fill-opacity:1;"/>
<path d="M25.5372 36.36C31.5817 36.36 36.4817 31.4762 36.4817 25.4519C36.4817 19.4276 31.5817 14.5439 25.5372 14.5439C19.4928 14.5439 14.5928 19.4276 14.5928 25.4519C14.5928 31.4762 19.4928 36.36 25.5372 36.36Z" fill="#2C2D2E" style="fill:#2C2D2E;fill:color(display-p3 0.1725 0.1765 0.1804);fill-opacity:1;"/>
<path d="M280.907 0H266.315C256.239 0 248.074 8.138 248.074 18.1799V32.7239C248.074 42.7658 256.239 50.9038 266.315 50.9038H280.907C290.983 50.9038 299.148 42.7658 299.148 32.7239V18.1799C299.148 8.138 290.983 0 280.907 0ZM291.852 32.7239C291.852 38.7465 286.95 43.6319 280.907 43.6319H266.315C260.272 43.6319 255.37 38.7465 255.37 32.7239V18.1799C255.37 12.1574 260.272 7.27197 266.315 7.27197H280.907C286.95 7.27197 291.852 12.1574 291.852 18.1799V32.7239Z" fill="#2C2D2E" style="fill:#2C2D2E;fill:color(display-p3 0.1725 0.1765 0.1804);fill-opacity:1;"/>
<path d="M273.611 36.36C279.655 36.36 284.556 31.4762 284.556 25.4519C284.556 19.4276 279.655 14.5439 273.611 14.5439C267.567 14.5439 262.667 19.4276 262.667 25.4519C262.667 31.4762 267.567 36.36 273.611 36.36Z" fill="#2C2D2E" style="fill:#2C2D2E;fill:color(display-p3 0.1725 0.1765 0.1804);fill-opacity:1;"/>
<path d="M32.8334 247.247H18.2407C8.16522 247.247 0 255.385 0 265.427V279.971C0 290.013 8.16522 298.151 18.2407 298.151H32.8334C42.9088 298.151 51.074 290.013 51.074 279.971V265.427C51.074 255.385 42.9088 247.247 32.8334 247.247ZM43.7778 279.971C43.7778 285.994 38.8761 290.879 32.8334 290.879H18.2407C12.1981 290.879 7.29629 285.994 7.29629 279.971V265.427C7.29629 259.405 12.1981 254.519 18.2407 254.519H32.8334C38.8761 254.519 43.7778 259.405 43.7778 265.427V279.971Z" fill="#2C2D2E" style="fill:#2C2D2E;fill:color(display-p3 0.1725 0.1765 0.1804);fill-opacity:1;"/>
<path d="M25.5372 283.607C31.5817 283.607 36.4817 278.723 36.4817 272.699C36.4817 266.675 31.5817 261.791 25.5372 261.791C19.4928 261.791 14.5928 266.675 14.5928 272.699C14.5928 278.723 19.4928 283.607 25.5372 283.607Z" fill="#2C2D2E" style="fill:#2C2D2E;fill:color(display-p3 0.1725 0.1765 0.1804);fill-opacity:1;"/>
</g>
<defs>
<clipPath id="clip0_2201_6668">
<rect width="300" height="299" fill="white" style="fill:white;fill-opacity:1;"/>
</clipPath>
</defs>
</svg>
